<?xml version="1.0"?>
<svg version="1.1" xmlns="http://www.w3.org/2000/svg" xmlns:xlink="http://www.w3.org/1999/xlink" width="500" height="200">
    <desc iVinci="yes" version="4.6" gridStep="20" showGrid="no" snapToGrid="no" codePlatform="0"/>
    <g id="Layer1" name="Layer 3" opacity="1">
        <g id="Shape1">
            <desc shapeID="1" type="0" basicInfo-basicType="0" basicInfo-roundedRectRadius="12" basicInfo-polygonSides="6" basicInfo-starPoints="5" bounding="rect(-556.357,-307.436,1112.71,614.873)" text="" font-familyName="Helvetica" font-pixelSize="20" font-bold="0" font-underline="0" font-alignment="1" strokeStyle="0" markerStart="0" markerEnd="0" shadowEnabled="0" shadowOffsetX="0" shadowOffsetY="2" shadowBlur="4" shadowOpacity="160" blurEnabled="0" blurRadius="4" transform="matrix(0.312938,0,0,0.312938,317.495,99.2347)" pers-center="0,0" pers-size="0,0" pers-start="0,0" pers-end="0,0" locked="0" mesh="" flag=""/>
            <path id="shapePath1" d="M148.961,47.3681 C148.961,47.3681 159.636,46.9575 159.636,46.9575 C159.636,46.9575 177.495,52.2946 177.29,52.2946 C177.085,52.2946 243.596,47.5734 243.596,47.5734 C243.596,47.5734 279.52,31.356 279.52,31.356 C279.52,31.356 306.823,26.8397 306.823,26.8397 C306.823,26.8397 316.471,23.966 316.471,23.966 C316.471,23.966 314.18,10.0277 314.18,10.0277 C314.18,10.0277 319.474,8.67329 319.474,8.67329 C319.474,8.67329 324.892,13.229 324.892,13.229 C324.892,13.229 330.925,10.8895 330.925,10.8895 C330.925,10.8895 340.448,3.02634 340.448,3.02634 C340.448,3.02634 344.904,4.69743 344.904,4.69743 C344.904,4.69743 346.575,12.4157 346.575,12.4157 C346.575,12.4157 349.605,17.741 349.605,17.741 C349.605,17.741 368.817,20.9192 368.817,20.9192 C368.817,20.9192 370.782,32.2557 370.782,32.2557 C370.782,32.2557 377.281,41.0226 377.281,41.0226 C377.281,41.0226 387.072,39.349 387.072,39.349 C387.072,39.349 422.034,62.9458 422.034,62.9458 C422.034,62.9458 468.734,79.7628 468.734,79.7628 C468.734,79.7628 488.931,79.3607 488.931,79.3607 C488.931,79.3607 491.6,87.4848 491.6,87.4848 C491.6,87.4848 486.03,109.42 486.03,109.42 C486.03,109.42 462.356,127.641 462.356,127.641 C462.356,127.641 442.625,126.248 442.625,126.248 C442.625,126.248 422.547,109.652 422.547,109.652 C422.547,109.652 411.941,90.6543 411.941,90.6543 C411.941,90.6543 402.963,89.4097 402.963,89.4097 C402.963,89.4097 386.82,116.742 386.82,116.742 C386.82,116.742 393.734,149.263 393.734,149.263 C393.734,149.263 394.246,170.004 394.246,170.004 C394.246,170.004 369.612,190.063 354.828,193.738 C337.92,197.942 301.55,193.05 301.55,193.05 C301.55,193.05 311.536,128.265 311.536,128.265 C311.536,128.265 288.815,120.248 288.815,120.248 C288.815,120.248 273.458,97.3759 273.458,97.3759 C273.458,97.3759 273.132,73.6868 273.132,73.6868 C273.132,73.6868 263.82,71.8899 263.82,71.8899 C263.82,71.8899 254.017,77.7712 254.017,77.7712 C254.017,77.7712 224.407,104.883 224.407,104.883 C224.407,104.883 185.963,105.836 185.963,105.836 C185.963,105.836 157.051,97.5752 157.051,97.5752 C157.051,97.5752 144.343,80.1007 144.343,80.1007 C144.343,80.1007 143.389,61.0378 143.389,61.0378 C143.389,61.0378 148.961,47.3681 148.961,47.3681 Z" style="stroke:none;fill-rule:evenodd;fill:#a0ece9;fill-opacity:1;"/>
        </g>
        <g id="Shape2">
            <desc shapeID="2" type="0" basicInfo-basicType="0" basicInfo-roundedRectRadius="12" basicInfo-polygonSides="6" basicInfo-starPoints="5" bounding="rect(-48.971,-30.162,97.942,60.324)" text="" font-familyName="Helvetica" font-pixelSize="20" font-bold="0" font-underline="0" font-alignment="1" strokeStyle="0" markerStart="0" markerEnd="0" shadowEnabled="0" shadowOffsetX="0" shadowOffsetY="2" shadowBlur="4" shadowOpacity="160" blurEnabled="0" blurRadius="4" transform="matrix(0.312938,0,0,0.312938,333.872,63.736)" pers-center="0,0" pers-size="0,0" pers-start="0,0" pers-end="0,0" locked="0" mesh="" flag=""/>
            <path id="shapePath2" d="M318.547,64.7965 C318.547,64.7965 322.047,57.4788 322.047,57.4788 C322.047,57.4788 331.168,54.2972 331.168,54.2972 C331.168,54.2972 342.621,55.5699 342.621,55.5699 C342.621,55.5699 349.197,61.721 349.197,61.721 C349.197,61.721 346.333,72.7508 346.333,72.7508 C346.333,72.7508 331.804,73.1748 331.804,73.1748 C331.804,73.1748 323.744,73.069 323.744,73.069 C323.744,73.069 318.547,64.7965 318.547,64.7965 Z" style="stroke:none;fill-rule:evenodd;fill:#fafff7;fill-opacity:1;"/>
        </g>
        <g id="Shape3">
            <desc shapeID="3" type="0" basicInfo-basicType="0" basicInfo-roundedRectRadius="12" basicInfo-polygonSides="6" basicInfo-starPoints="5" bounding="rect(-31.8975,-29.9579,63.795,59.916)" text="" font-familyName="Helvetica" font-pixelSize="20" font-bold="0" font-underline="0" font-alignment="1" strokeStyle="0" markerStart="0" markerEnd="0" shadowEnabled="0" shadowOffsetX="0" shadowOffsetY="2" shadowBlur="4" shadowOpacity="160" blurEnabled="0" blurRadius="4" transform="matrix(0.312938,0,0,0.312938,358.985,131.222)" pers-center="0,0" pers-size="0,0" pers-start="0,0" pers-end="0,0" locked="0" mesh="" flag=""/>
            <path id="shapePath3" d="M349.003,121.847 C349.003,121.847 355.343,123.195 355.748,122.926 C356.152,122.656 366.539,121.847 366.539,121.847 C366.539,121.847 368.967,137.359 368.967,137.359 C368.967,137.359 364.786,140.597 364.786,140.597 C364.786,140.597 351.566,137.899 351.566,137.899 C351.566,137.899 349.003,126.568 349.003,126.568 C349.003,126.568 349.003,121.847 349.003,121.847 Z" style="stroke:none;fill-rule:evenodd;fill:#f9fff7;fill-opacity:1;"/>
        </g>
        <g id="Shape4">
            <desc shapeID="4" type="0" basicInfo-basicType="0" basicInfo-roundedRectRadius="12" basicInfo-polygonSides="6" basicInfo-starPoints="5" bounding="rect(-68.6696,-84.4028,137.339,168.806)" text="" font-familyName="Helvetica" font-pixelSize="20" font-bold="0" font-underline="0" font-alignment="1" strokeStyle="0" markerStart="0" markerEnd="0" shadowEnabled="0" shadowOffsetX="0" shadowOffsetY="2" shadowBlur="4" shadowOpacity="160" blurEnabled="0" blurRadius="4" transform="matrix(0.312938,0,0,0.312938,338.928,157.297)" pers-center="0,0" pers-size="0,0" pers-start="0,0" pers-end="0,0" locked="0" mesh="" flag=""/>
            <path id="shapePath4" d="M317.439,130.884 C317.439,130.884 317.862,149.59 319.306,158.805 C320.126,164.033 320.712,169.92 324.183,173.915 C328.331,178.689 334.406,182.293 340.64,183.357 C346.274,184.319 353.109,183.394 357.367,179.58 C360.815,176.491 360.705,170.541 360.065,165.956 C359.738,163.623 357.157,161.347 354.804,161.235 C350.685,161.039 347.191,165.239 343.068,165.147 C338.632,165.048 333.181,164.249 330.523,160.695 C324.023,152.006 317.439,130.884 317.439,130.884 Z" style="stroke:none;fill-rule:evenodd;fill:#f9fff7;fill-opacity:1;"/>
        </g>
        <g id="Shape5">
            <desc shapeID="5" type="0" basicInfo-basicType="0" basicInfo-roundedRectRadius="12" basicInfo-polygonSides="6" basicInfo-starPoints="5" bounding="rect(-32.7155,-38.6225,65.4311,77.2449)" text="" font-familyName="Helvetica" font-pixelSize="20" font-bold="0" font-underline="0" font-alignment="1" strokeStyle="0" markerStart="0" markerEnd="0" shadowEnabled="0" shadowOffsetX="0" shadowOffsetY="2" shadowBlur="4" shadowOpacity="160" blurEnabled="0" blurRadius="4" transform="matrix(0.312938,0,0,0.312938,315.71,15.0865)" pers-center="0,0" pers-size="0,0" pers-start="0,0" pers-end="0,0" locked="0" mesh="" flag=""/>
            <path id="shapePath5" d="M321.067,25.7134 C319.43,26.839 317.022,27.6624 315.215,26.839 C311.75,25.2609 308.422,22.5994 306.736,19.1858 C305.127,15.9281 305.234,11.8443 306.061,8.30624 C306.577,6.09502 308.241,3.46227 310.488,3.12899 C314.316,2.56132 318.459,3.93199 321.742,5.98017 C323.911,7.33331 324.815,10.1648 325.644,12.5828 C326.067,13.8168 326.119,15.4356 325.344,16.4846 C324.889,17.1001 323.71,16.4871 323.093,16.0346 C322.116,15.3182 321.568,14.1519 320.842,13.1834 C320.292,12.4505 320.18,10.9953 319.266,10.9324 C318.54,10.882 318.493,12.3259 318.666,13.0332 C319.124,14.903 320.316,16.513 321.067,18.2855 C321.567,19.4659 322.417,20.6047 322.417,21.8868 C322.417,23.2396 322.182,24.9473 321.067,25.7134 Z" style="stroke:none;fill-rule:evenodd;fill:#334b4a;fill-opacity:1;"/>
        </g>
        <g id="Shape6">
            <desc shapeID="6" type="0" basicInfo-basicType="0" basicInfo-roundedRectRadius="12" basicInfo-polygonSides="6" basicInfo-starPoints="5" bounding="rect(-37.845,-36.0195,75.6901,72.0391)" text="" font-familyName="Helvetica" font-pixelSize="20" font-bold="0" font-underline="0" font-alignment="1" strokeStyle="0" markerStart="0" markerEnd="0" shadowEnabled="0" shadowOffsetX="0" shadowOffsetY="2" shadowBlur="4" shadowOpacity="160" blurEnabled="0" blurRadius="4" transform="matrix(0.312938,0,0,0.312938,338.017,11.2719)" pers-center="0,0" pers-size="0,0" pers-start="0,0" pers-end="0,0" locked="0" mesh="" flag=""/>
            <path id="shapePath6" d="M329.918,13.7191 C328.601,13.7025 327.022,13.0438 326.424,11.8696 C325.842,10.7255 326.367,9.16055 327.041,8.06777 C328.53,5.65095 330.29,3.20847 332.693,1.69667 C334.746,0.405172 337.369,-0.188787 339.783,0.0528021 C342.085,0.282812 344.48,1.33397 346.051,3.0326 C348.037,5.18123 349.687,8.02333 349.853,10.9449 C349.989,13.3477 348.081,15.4396 346.873,17.5213 C345.841,19.2988 345.123,21.8036 343.174,22.4535 C341.702,22.9439 340.094,21.3329 339.166,20.0902 C338.142,18.7177 337.628,16.8676 337.728,15.1577 C337.812,13.705 338.794,12.4073 339.68,11.2532 C340.64,10.0033 342.208,9.31295 343.174,8.06777 C343.561,7.56863 343.851,6.79098 343.585,6.21799 C343.3,5.60526 342.475,4.96562 341.838,5.19062 C340.94,5.50731 340.789,6.80288 340.091,7.45097 C338.344,9.07543 336.573,10.7209 334.542,11.9723 C333.139,12.8366 331.566,13.7401 329.918,13.7191 Z" style="stroke:none;fill-rule:evenodd;fill:#334b4a;fill-opacity:1;"/>
        </g>
        <g id="Shape7">
            <desc shapeID="7" type="0" basicInfo-basicType="0" basicInfo-roundedRectRadius="12" basicInfo-polygonSides="6" basicInfo-starPoints="5" bounding="rect(-45.1011,-32.5464,90.2023,65.093)" text="" font-familyName="Helvetica" font-pixelSize="20" font-bold="0" font-underline="0" font-alignment="1" strokeStyle="0" markerStart="0" markerEnd="0" shadowEnabled="0" shadowOffsetX="0" shadowOffsetY="2" shadowBlur="4" shadowOpacity="160" blurEnabled="0" blurRadius="4" transform="matrix(0.312938,0,0,0.312938,360.654,23.7515)" pers-center="0,0" pers-size="0,0" pers-start="0,0" pers-end="0,0" locked="0" mesh="" flag=""/>
            <path id="shapePath7" d="M349.353,20.1685 C351.302,20.8041 353.186,21.751 355.219,22.0208 C357.281,22.2943 359.398,21.4622 361.455,21.7735 C362.884,21.9904 365.345,22.1193 365.406,23.5642 C365.471,25.0872 362.799,25.1673 361.64,26.1575 C360.665,26.9902 358.641,27.7813 359.047,28.9977 C359.748,31.1006 362.022,32.481 364.048,33.3813 C365.743,34.1349 367.775,33.9981 369.605,33.6902 C371.125,33.4342 373.208,33.1638 373.797,31.7397 C374.956,28.9411 375.072,25.5523 374.171,22.6598 C373.34,19.9892 371.381,17.4547 368.929,16.1072 C365.717,14.3416 361.811,14.2367 358.165,13.8606 C355.709,13.6077 353.012,13.2044 350.77,14.2352 C348.798,15.1411 347.061,17.0863 346.557,19.1965 C346.328,20.156 348.415,19.8624 349.353,20.1685 Z" style="stroke:none;fill-rule:evenodd;fill:#334b4a;fill-opacity:1;"/>
        </g>
        <g id="Shape8">
            <desc shapeID="8" type="0" basicInfo-basicType="0" basicInfo-roundedRectRadius="12" basicInfo-polygonSides="6" basicInfo-starPoints="5" bounding="rect(-199.151,-161.505,398.303,323.011)" text="" font-familyName="Helvetica" font-pixelSize="20" font-bold="0" font-underline="0" font-alignment="1" strokeStyle="0" markerStart="0" markerEnd="0" shadowEnabled="0" shadowOffsetX="0" shadowOffsetY="2" shadowBlur="4" shadowOpacity="160" blurEnabled="0" blurRadius="4" transform="matrix(0.312938,0,0,0.312938,432.311,82.9707)" pers-center="0,0" pers-size="0,0" pers-start="0,0" pers-end="0,0" locked="0" mesh="" flag=""/>
            <path id="shapePath8" d="M370.018,37.1529 C370.341,34.7795 373.101,32.0839 375.465,32.466 C383.214,33.7184 390.316,37.7612 397.193,41.5446 C406.518,46.6746 414.495,54.0477 423.868,59.0936 C431.31,63.1004 439.415,65.7576 447.382,68.5702 C455.34,71.3785 463.264,74.6331 471.6,75.9409 C475.459,76.5458 479.493,72.9148 483.182,74.1859 C487.41,75.6411 491.8,79.008 493.012,83.3115 C495.227,91.196 495.23,100.103 492.661,107.88 C490.411,114.681 485.338,120.841 479.324,124.727 C471.553,129.746 462.243,133.23 452.999,133.502 C445.454,133.724 437.919,130.244 431.588,126.131 C425.821,122.382 421.749,116.388 417.9,110.688 C415.578,107.249 414.705,103.024 413.338,99.1055 C412.132,95.645 406.668,89.5656 410.195,88.5711 C414.258,87.4257 416.501,94.2218 419.224,97.4456 C421.612,100.272 422.657,104.211 425.451,106.632 C430.559,111.051 436.148,115.272 442.494,117.586 C448.937,119.936 456.107,121.295 462.891,120.286 C467.836,119.551 472.114,116.024 475.791,112.637 C479.28,109.422 481.636,105.11 483.889,100.937 C485.667,97.6528 487.188,94.1219 487.792,90.4377 C488.167,88.142 487.945,85.5287 486.74,83.5381 C486.243,82.715 484.781,83.6244 483.889,83.9881 C482.293,84.6396 481.082,86.1996 479.389,86.5379 C475.956,87.2248 472.289,87.8463 468.89,86.9879 C462.966,85.4902 457.903,81.534 452.092,79.6382 C446.049,77.6667 439.355,77.898 433.494,75.4383 C426.706,72.5899 420.704,68.1105 414.649,63.9244 C408.722,59.8271 403.367,54.9574 397.607,50.6283 C394.063,47.9642 390.97,44.2985 386.746,42.9503 C384.508,42.2362 382.354,44.976 380.004,45.0104 C377.912,45.0411 375.656,44.4318 374.012,43.1378 C372.127,41.6548 369.695,39.5293 370.018,37.1529 Z" style="stroke:none;fill-rule:evenodd;fill:#334b4a;fill-opacity:1;"/>
        </g>
        <g id="Shape9">
            <desc shapeID="9" type="0" basicInfo-basicType="0" basicInfo-roundedRectRadius="12" basicInfo-polygonSides="6" basicInfo-starPoints="5" bounding="rect(-12.4222,-17.2483,24.8444,34.4964)" text="" font-familyName="Helvetica" font-pixelSize="20" font-bold="0" font-underline="0" font-alignment="1" strokeStyle="0" markerStart="0" markerEnd="0" shadowEnabled="0" shadowOffsetX="0" shadowOffsetY="2" shadowBlur="4" shadowOpacity="160" blurEnabled="0" blurRadius="4" transform="matrix(0.312938,0,0,0.312938,321.96,47.7031)" pers-center="0,0" pers-size="0,0" pers-start="0,0" pers-end="0,0" locked="0" mesh="" flag=""/>
            <path id="shapePath9" d="M325.06,52.7785 C323.746,53.3984 321.909,53.0764 320.738,52.217 C319.394,51.2316 318.723,49.4566 318.324,47.8387 C317.947,46.3122 317.986,44.6127 318.493,43.124 C318.69,42.5448 319.634,42.1113 320.176,42.3942 C321.619,43.1469 322.685,44.5128 323.657,45.8181 C324.561,47.0332 325.434,48.3748 325.733,49.8597 C325.931,50.8386 325.963,52.3522 325.06,52.7785 Z" style="stroke:none;fill-rule:evenodd;fill:#334b4a;fill-opacity:1;"/>
        </g>
        <g id="Shape10">
            <desc shapeID="10" type="0" basicInfo-basicType="0" basicInfo-roundedRectRadius="12" basicInfo-polygonSides="6" basicInfo-starPoints="5" bounding="rect(-9.91787,-17.5667,19.8357,35.1335)" text="" font-familyName="Helvetica" font-pixelSize="20" font-bold="0" font-underline="0" font-alignment="1" strokeStyle="0" markerStart="0" markerEnd="0" shadowEnabled="0" shadowOffsetX="0" shadowOffsetY="2" shadowBlur="4" shadowOpacity="160" blurEnabled="0" blurRadius="4" transform="matrix(0.312938,0,0,0.312938,340.26,46.1046)" pers-center="0,0" pers-size="0,0" pers-start="0,0" pers-end="0,0" locked="0" mesh="" flag=""/>
            <path id="shapePath10" d="M337.633,48.1758 C337.195,46.9919 337.1,45.6745 337.184,44.4149 C337.271,43.1246 336.923,41.0962 338.139,40.654 C339.201,40.2678 339.605,42.3786 340.271,43.2924 C341.066,44.3827 341.978,45.4232 342.517,46.6602 C343.006,47.784 343.548,49.0517 343.302,50.2524 C343.152,50.9856 342.253,51.5564 341.506,51.5996 C340.721,51.6453 340.019,50.9982 339.429,50.4771 C338.7,49.8325 337.971,49.0883 337.633,48.1758 Z" style="stroke:none;fill-rule:evenodd;fill:#334b4a;fill-opacity:1;"/>
        </g>
        <g id="Shape11">
            <desc shapeID="11" type="0" basicInfo-basicType="0" basicInfo-roundedRectRadius="12" basicInfo-polygonSides="6" basicInfo-starPoints="5" bounding="rect(0,0,0,0)" text="" font-familyName="Helvetica" font-pixelSize="20" font-bold="0" font-underline="0" font-alignment="1" strokeStyle="0" markerStart="0" markerEnd="0" shadowEnabled="0" shadowOffsetX="0" shadowOffsetY="2" shadowBlur="4" shadowOpacity="160" blurEnabled="0" blurRadius="4" transform="matrix(0.312938,0,0,0.312938,334.009,65.8098)" pers-center="0,0" pers-size="0,0" pers-start="0,0" pers-end="0,0" locked="0" mesh="" flag=""/>
            <path id="shapePath11" d="M334.009,65.8098 Z" style="stroke:none;fill-rule:evenodd;fill:#334b4a;fill-opacity:1;"/>
        </g>
        <g id="Shape12">
            <desc shapeID="12" type="0" basicInfo-basicType="0" basicInfo-roundedRectRadius="12" basicInfo-polygonSides="6" basicInfo-starPoints="5" bounding="rect(-15.2408,-25.2381,30.4815,50.4761)" text="" font-familyName="Helvetica" font-pixelSize="20" font-bold="0" font-underline="0" font-alignment="1" strokeStyle="0" markerStart="0" markerEnd="0" shadowEnabled="0" shadowOffsetX="0" shadowOffsetY="2" shadowBlur="4" shadowOpacity="160" blurEnabled="0" blurRadius="4" transform="matrix(0.312938,0,0,0.312938,333.743,58.18)" pers-center="0,0" pers-size="0,0" pers-start="0,0" pers-end="0,0" locked="0" mesh="" flag=""/>
            <path id="shapePath12" d="M333.919,66.0095 C333.182,66.4025 332.421,65.0087 332.176,64.2104 C331.815,63.0269 332.358,61.7291 332.234,60.4977 C332.175,59.9135 331.939,59.343 331.634,58.8413 C330.865,57.5777 329.393,56.6789 329.035,55.2432 C328.769,54.1761 329.424,53.0395 329.949,52.0731 C330.348,51.3399 330.888,50.3713 331.72,50.3025 C333.473,50.1576 335.245,50.8045 336.86,51.502 C337.499,51.7777 338.005,52.4339 338.202,53.1011 C338.535,54.2252 338.614,55.4663 338.374,56.6138 C338.239,57.2572 337.635,57.7169 337.146,58.156 C336.594,58.6517 335.595,58.708 335.29,59.384 C334.842,60.3741 335.338,61.5755 335.118,62.6398 C334.876,63.8073 334.97,65.4478 333.919,66.0095 Z" style="stroke:none;fill-rule:evenodd;fill:#334b4a;fill-opacity:1;"/>
        </g>
        <g id="Shape13">
            <desc shapeID="13" type="0" basicInfo-basicType="0" basicInfo-roundedRectRadius="12" basicInfo-polygonSides="6" basicInfo-starPoints="5" bounding="rect(-54.8005,-38.3973,109.601,76.7947)" text="" font-familyName="Helvetica" font-pixelSize="20" font-bold="0" font-underline="0" font-alignment="1" strokeStyle="0" markerStart="0" markerEnd="0" shadowEnabled="0" shadowOffsetX="0" shadowOffsetY="2" shadowBlur="4" shadowOpacity="160" blurEnabled="0" blurRadius="4" transform="matrix(0.312938,0,0,0.312938,333.912,64.7426)" pers-center="0,0" pers-size="0,0" pers-start="0,0" pers-end="0,0" locked="0" mesh="" flag=""/>
            <path id="shapePath13" d="M330.441,55.1978 C329.701,56.2668 328.178,56.494 327.143,57.2804 C325.222,58.7402 322.937,59.921 321.59,61.9228 C320.743,63.1818 320.703,64.9433 320.982,66.4351 C321.256,67.8952 321.854,69.6233 323.165,70.3205 C325.014,71.3031 327.325,70.9796 329.417,70.9185 C331.704,70.8519 333.962,70.3549 336.212,69.94 C338.167,69.5798 340.245,69.4872 342.022,68.595 C343.532,67.8364 344.952,66.6457 345.743,65.1523 C346.429,63.8584 346.444,62.2164 346.162,60.7794 C345.979,59.8449 345.244,59.0109 344.441,58.4996 C342.613,57.3364 340.449,56.8113 338.486,55.8944 C337.625,55.4923 336.332,55.4259 335.974,54.5453 C335.712,53.9013 336.604,53.0927 337.277,52.9171 C338.584,52.576 340.044,52.7171 341.324,53.1496 C343.512,53.8891 345.681,54.8927 347.465,56.3597 C348.824,57.4772 350.017,58.9912 350.489,60.6864 C351.163,63.1079 351.223,65.7504 350.768,68.2229 C350.302,70.7521 349.812,73.7506 347.79,75.3407 C345.807,76.9016 342.818,76.2648 340.301,76.4572 C337.331,76.6844 334.328,76.9279 331.368,76.5968 C329.551,76.3934 327.963,75.1679 326.158,74.8756 C325.125,74.7082 324.009,75.6436 323.041,75.2477 C320.95,74.3934 318.578,73.3272 317.505,71.3398 C316.375,69.2487 316.796,66.5809 317.086,64.222 C317.334,62.202 317.886,60.0971 319.087,58.4533 C320.257,56.8501 322.093,55.7849 323.878,54.9174 C325.79,53.9889 327.88,53.0589 330.003,53.1496 C330.701,53.1793 330.838,54.6239 330.441,55.1978 Z" style="stroke:none;fill-rule:evenodd;fill:#334b4a;fill-opacity:1;"/>
        </g>
        <g id="Shape14">
            <desc shapeID="14" type="0" basicInfo-basicType="0" basicInfo-roundedRectRadius="12" basicInfo-polygonSides="6" basicInfo-starPoints="5" bounding="rect(-88.0275,-108.327,176.055,216.653)" text="" font-familyName="Helvetica" font-pixelSize="20" font-bold="0" font-underline="0" font-alignment="1" strokeStyle="0" markerStart="0" markerEnd="0" shadowEnabled="0" shadowOffsetX="0" shadowOffsetY="2" shadowBlur="4" shadowOpacity="160" blurEnabled="0" blurRadius="4" transform="matrix(0.312938,0,0,0.312938,344.305,133.761)" pers-center="0,0" pers-size="0,0" pers-start="0,0" pers-end="0,0" locked="0" mesh="" flag=""/>
            <path id="shapePath14" d="M355.234,161.92 C353.573,164.182 351.021,165.905 348.351,166.771 C345.125,167.819 341.571,167.79 338.196,167.449 C335.522,167.178 332.442,166.849 330.524,164.966 C326.138,160.663 322.62,155.357 320.143,149.734 C317.943,144.738 316.775,139.17 316.758,133.711 C316.736,126.483 317.476,119.036 320.03,112.273 C321.47,108.463 325.006,105.687 328.267,103.247 C330.671,101.448 333.613,99.8619 336.617,99.8619 C339.207,99.8619 341.771,101.424 343.612,103.247 C345.79,105.403 347.129,108.359 348.126,111.258 C349.191,114.357 349.082,117.744 349.705,120.961 C350.474,124.93 350.588,129.147 352.301,132.809 C353.161,134.65 355.163,135.864 357.039,136.645 C359.362,137.613 361.97,137.929 364.486,137.886 C366.539,137.852 368.491,135.864 370.467,136.42 C371.658,136.754 372.111,138.748 371.708,139.917 C371.204,141.379 369.544,142.182 368.21,142.964 C366.865,143.751 365.351,144.77 363.809,144.543 C362.409,144.338 361.884,142.273 360.537,141.836 C358.82,141.278 356.718,142.566 355.121,141.723 C351.77,139.953 348.316,137.678 346.433,134.389 C345.325,132.453 347.13,129.962 347.11,127.732 C347.092,125.721 346.92,123.671 346.32,121.751 C345.214,118.211 343.734,114.779 342.033,111.483 C340.712,108.925 339.656,105.908 337.294,104.262 C335.842,103.251 333.52,103.599 331.991,104.488 C329.732,105.799 327.703,107.905 326.8,110.355 C324.979,115.298 324.236,120.66 324.092,125.926 C323.932,131.785 324.6,137.7 325.898,143.415 C327.028,148.395 327.394,154.472 331.314,157.745 C335.249,161.031 341.323,160.153 346.433,160.566 C348.856,160.761 351.252,159.181 353.654,159.55 C354.593,159.695 355.796,161.155 355.234,161.92 Z" style="stroke:none;fill-rule:evenodd;fill:#334b4a;fill-opacity:1;"/>
        </g>
        <g id="Shape15">
            <desc shapeID="15" type="0" basicInfo-basicType="0" basicInfo-roundedRectRadius="12" basicInfo-polygonSides="6" basicInfo-starPoints="5" bounding="rect(-92.2459,-97.5691,184.492,195.139)" text="" font-familyName="Helvetica" font-pixelSize="20" font-bold="0" font-underline="0" font-alignment="1" strokeStyle="0" markerStart="0" markerEnd="0" shadowEnabled="0" shadowOffsetX="0" shadowOffsetY="2" shadowBlur="4" shadowOpacity="160" blurEnabled="0" blurRadius="4" transform="matrix(0.312938,0,0,0.312938,376.792,95.0133)" pers-center="0,0" pers-size="0,0" pers-start="0,0" pers-end="0,0" locked="0" mesh="" flag=""/>
            <path id="shapePath15" d="M383.965,64.8522 C384.836,63.8802 386.71,65.0331 387.765,65.8023 C390.615,67.8802 393.186,70.3912 395.365,73.1645 C398.878,77.6364 402.905,82.0335 404.746,87.4144 C406.168,91.5715 405.741,96.3156 404.746,100.595 C403.595,105.548 401.794,110.657 398.452,114.489 C395.811,117.518 391.598,118.863 387.765,120.07 C383.568,121.392 379.014,121.092 374.703,121.97 C370.055,122.916 365.625,124.88 360.928,125.532 C359.762,125.694 358.778,124.406 357.603,124.345 C354.868,124.204 351.921,126.029 349.409,124.939 C348.006,124.33 347.335,121.317 348.578,120.426 C350.74,118.877 353.913,120.281 356.534,119.833 C361.096,119.051 365.747,118.393 370.071,116.745 C376.307,114.368 382.964,112.216 388.002,107.839 C392.076,104.3 394.48,99.0207 396.315,93.9454 C397.61,90.3623 398.001,86.2584 397.146,82.5458 C396.414,79.3682 394.032,76.7307 391.802,74.3521 C389.804,72.2204 386.537,71.4997 384.677,69.2459 C383.733,68.1015 382.974,65.9569 383.965,64.8522 Z" style="stroke:none;fill-rule:evenodd;fill:#334b4a;fill-opacity:1;"/>
        </g>
        <g id="Shape16">
            <desc shapeID="16" type="0" basicInfo-basicType="0" basicInfo-roundedRectRadius="12" basicInfo-polygonSides="6" basicInfo-starPoints="5" bounding="rect(-86.2555,-127.962,172.511,255.925)" text="" font-familyName="Helvetica" font-pixelSize="20" font-bold="0" font-underline="0" font-alignment="1" strokeStyle="0" markerStart="0" markerEnd="0" shadowEnabled="0" shadowOffsetX="0" shadowOffsetY="2" shadowBlur="4" shadowOpacity="160" blurEnabled="0" blurRadius="4" transform="matrix(0.312938,0,0,0.312938,294.739,92.2997)" pers-center="0,0" pers-size="0,0" pers-start="0,0" pers-end="0,0" locked="0" mesh="" flag=""/>
            <path id="shapePath16" d="M288.984,52.4174 C282.562,56.0471 276.766,61.3082 272.839,67.5529 C269.426,72.9821 267.405,79.7177 267.794,86.1192 C268.315,94.699 270.759,103.545 275.463,110.74 C280.263,118.081 287.817,123.423 295.24,128.095 C299.51,130.783 304.727,132.177 309.77,132.333 C313.769,132.457 318.258,131.533 321.273,128.902 C322.591,127.753 320.803,124.872 319.255,124.059 C316.307,122.51 312.647,123.216 309.366,122.647 C304.505,121.803 299.152,122.212 294.836,119.821 C289.424,116.823 284.763,112.244 281.315,107.107 C277.993,102.159 276.403,96.1639 275.059,90.3573 C274.481,87.8591 275.081,85.1854 275.665,82.6885 C276.773,77.9446 277.987,73.1517 280.104,68.7637 C281.736,65.383 284.972,62.9812 286.764,59.6825 C287.973,57.4572 291.188,51.1715 288.984,52.4174 Z" style="stroke:none;fill-rule:evenodd;fill:#334b4a;fill-opacity:1;"/>
        </g>
        <g id="Shape17">
            <desc shapeID="17" type="0" basicInfo-basicType="0" basicInfo-roundedRectRadius="12" basicInfo-polygonSides="6" basicInfo-starPoints="5" bounding="rect(-270.971,-144.877,541.942,289.753)" text="" font-familyName="Helvetica" font-pixelSize="20" font-bold="0" font-underline="0" font-alignment="1" strokeStyle="0" markerStart="0" markerEnd="0" shadowEnabled="0" shadowOffsetX="0" shadowOffsetY="2" shadowBlur="4" shadowOpacity="160" blurEnabled="0" blurRadius="4" transform="matrix(0.312938,0,0,0.312938,225.349,65.4916)" pers-center="0,0" pers-size="0,0" pers-start="0,0" pers-end="0,0" locked="0" mesh="" flag=""/>
            <path id="shapePath17" d="M310.087,26.8547 C310.586,24.5549 307.857,22.0217 305.582,21.418 C299.674,19.8505 293.295,19.8599 287.254,20.7968 C280.41,21.8583 273.88,24.5624 267.527,27.3206 C259.285,30.8988 251.793,36.0419 243.607,39.7468 C236.442,42.9891 228.904,45.3337 221.553,48.1273 C221.331,48.2118 221.124,48.3811 220.886,48.3811 C213.199,48.3811 205.507,48.4537 197.827,48.1276 C187.594,47.6932 177.356,47.1424 167.167,46.1004 C162.47,45.62 157.95,43.396 153.231,43.5665 C150.625,43.6607 147.556,44.674 146.136,46.8608 C143.023,51.6547 140.596,57.3614 140.561,63.0775 C140.508,72.0388 140.512,82.256 145.883,89.4301 C152.509,98.2828 163.319,103.765 173.755,107.421 C183.924,110.982 195.19,111.256 205.936,110.461 C217.193,109.629 228.461,106.959 238.876,102.606 C245.781,99.7207 251.972,94.8376 256.867,89.1766 C259.333,86.3241 257.767,81.385 259.908,78.281 C261.431,76.0723 265.699,76.8252 267.002,74.4801 C268.604,71.5967 268.051,67.8514 267.509,64.5978 C267.322,63.4772 266.025,61.8821 264.975,62.3174 C261.819,63.6261 259.733,66.7029 257.12,68.9054 C249.513,75.3181 242.861,83.0668 234.315,88.163 C228.555,91.5984 221.521,92.1996 215.058,93.9911 C205.976,96.5081 197.115,100.994 187.692,101.086 C179.21,101.169 170.824,98.0318 163.113,94.4978 C158.374,92.326 153.977,88.776 151.204,84.3623 C147.751,78.8665 145.839,72.3155 145.122,65.8649 C144.619,61.3373 145.334,56.3544 147.656,52.4352 C148.605,50.8351 151.458,52.744 153.231,52.1817 C155.04,51.6081 156.159,48.9268 158.045,49.1412 C160.582,49.4294 162.739,51.4923 164.38,53.4488 C165.142,54.3572 163.577,56.457 164.633,56.9962 C172.082,60.7997 179.934,64.3249 188.198,65.6114 C198.13,67.1573 208.414,66.8669 218.352,65.3579 C224.803,64.3784 230.613,60.8673 236.596,58.2633 C244.98,54.6135 253.162,50.5181 261.428,46.6073 C270.478,42.3254 279.682,38.3501 288.54,33.6845 C290.782,32.5035 292.164,29.7381 294.622,29.1235 C297.582,28.3834 300.725,30.3264 303.744,29.8836 C306.062,29.5434 309.59,29.1441 310.087,26.8547 Z" style="stroke:none;fill-rule:evenodd;fill:#334b4a;fill-opacity:1;"/>
        </g>
        <g id="Shape18">
            <desc shapeID="18" type="0" basicInfo-basicType="0" basicInfo-roundedRectRadius="12" basicInfo-polygonSides="6" basicInfo-starPoints="5" bounding="rect(-21.7446,-88.1959,43.4891,176.392)" text="" font-familyName="Helvetica" font-pixelSize="20" font-bold="0" font-underline="0" font-alignment="1" strokeStyle="0" markerStart="0" markerEnd="0" shadowEnabled="0" shadowOffsetX="0" shadowOffsetY="2" shadowBlur="4" shadowOpacity="160" blurEnabled="0" blurRadius="4" transform="matrix(0.312938,0,0,0.312938,390.187,143.29)" pers-center="0,0" pers-size="0,0" pers-start="0,0" pers-end="0,0" locked="0" mesh="" flag=""/>
            <path id="shapePath18" d="M384.323,115.953 C385.565,114.854 387.54,117.465 388.302,118.938 C390.843,123.843 392.516,129.185 393.939,134.523 C395.4,140.002 396.614,145.608 396.924,151.27 C397.227,156.802 396.462,162.354 395.763,167.85 C395.626,168.93 395.497,170.587 394.437,170.835 C393.113,171.144 391.582,170.115 390.789,169.011 C389.866,167.725 389.857,165.95 389.794,164.368 C389.58,158.956 390.51,153.508 389.96,148.119 C389.398,142.609 387.747,137.262 386.478,131.87 C385.756,128.803 384.414,125.873 383.991,122.751 C383.687,120.503 382.623,117.456 384.323,115.953 Z" style="stroke:none;fill-rule:evenodd;fill:#334b4a;fill-opacity:1;"/>
        </g>
        <g id="Shape19">
            <desc shapeID="19" type="0" basicInfo-basicType="0" basicInfo-roundedRectRadius="12" basicInfo-polygonSides="6" basicInfo-starPoints="5" bounding="rect(-20.6831,-113.122,41.3662,226.244)" text="" font-familyName="Helvetica" font-pixelSize="20" font-bold="0" font-underline="0" font-alignment="1" strokeStyle="0" markerStart="0" markerEnd="0" shadowEnabled="0" shadowOffsetX="0" shadowOffsetY="2" shadowBlur="4" shadowOpacity="160" blurEnabled="0" blurRadius="4" transform="matrix(0.312938,0,0,0.312938,306.576,161.608)" pers-center="0,0" pers-size="0,0" pers-start="0,0" pers-end="0,0" locked="0" mesh="" flag=""/>
            <path id="shapePath19" d="M310.151,126.396 C311.195,125.517 313.042,127.928 313.047,129.293 C313.094,140.156 311.475,150.966 310.303,161.765 C309.34,170.639 308.187,179.5 306.644,188.292 C306.15,191.111 305.503,193.974 304.205,196.524 C303.928,197.07 302.692,197.201 302.376,196.677 C301.161,194.669 300.376,192.312 300.241,189.969 C299.862,183.371 300.328,176.739 300.851,170.15 C301.346,163.917 302.195,157.707 303.29,151.551 C304.332,145.701 305.691,139.904 307.254,134.171 C307.982,131.503 308.035,128.178 310.151,126.396 Z" style="stroke:none;fill-rule:evenodd;fill:#334b4a;fill-opacity:1;"/>
        </g>
        <g id="Shape20">
            <desc shapeID="20" type="0" basicInfo-basicType="0" basicInfo-roundedRectRadius="12" basicInfo-polygonSides="6" basicInfo-starPoints="5" bounding="rect(-280.775,-37.0117,561.551,74.0234)" text="USERFLOW" font-familyName="Arial Rounded MT Bold" font-pixelSize="100" font-bold="0" font-underline="0" font-alignment="1" strokeStyle="0" markerStart="0" markerEnd="0" shadowEnabled="0" shadowOffsetX="0" shadowOffsetY="2" shadowBlur="4" shadowOpacity="160" blurEnabled="0" blurRadius="4" transform="matrix(0.516114,0,0,0.516114,149.827,176.341)" pers-center="0,0" pers-size="0,0" pers-start="0,0" pers-end="0,0" locked="0" mesh="" flag=""/>
            <path id="shapePath20" d="M4.91504,179.542 L4.91504,161.775 C4.91504,160.263 5.25525,159.129 5.93567,158.373 C6.61609,157.617 7.51073,157.239 8.61955,157.239 C9.77879,157.239 10.6986,157.617 11.3791,158.373 C12.0595,159.129 12.3997,160.263 12.3997,161.775 L12.3997,179.945 C12.3997,182.011 12.6307,183.738 13.0927,185.124 C13.5547,186.51 14.3737,187.585 15.5498,188.349 C16.7258,189.114 18.3723,189.496 20.4892,189.496 C23.4125,189.496 25.4789,188.719 26.6886,187.165 C27.8982,185.611 28.503,183.255 28.503,180.096 L28.503,161.775 C28.503,160.246 28.8391,159.108 29.5111,158.36 C30.1831,157.613 31.0819,157.239 32.2076,157.239 C33.3332,157.239 34.2446,157.613 34.9419,158.36 C35.6391,159.108 35.9877,160.246 35.9877,161.775 L35.9877,179.542 C35.9877,182.431 35.7063,184.842 35.1435,186.774 C34.5806,188.706 33.518,190.403 31.9556,191.865 C30.6115,193.108 29.0491,194.015 27.2682,194.587 C25.4873,195.158 23.4041,195.443 21.0184,195.443 C18.1791,195.443 15.7346,195.137 13.6849,194.524 C11.6353,193.91 9.96359,192.961 8.66997,191.676 C7.37633,190.391 6.42708,188.744 5.82227,186.737 C5.21744,184.729 4.91504,182.331 4.91504,179.542 M72.1469,183.725 C72.1469,185.959 71.5715,187.967 70.4206,189.748 C69.2698,191.529 67.5855,192.923 65.3679,193.931 C63.1502,194.939 60.5209,195.443 57.48,195.443 C53.8343,195.443 50.827,194.755 48.4581,193.377 C46.778,192.386 45.413,191.063 44.363,189.408 C43.3129,187.753 42.7879,186.144 42.7879,184.582 C42.7879,183.675 43.1029,182.898 43.7329,182.251 C44.363,181.604 45.1652,181.281 46.1396,181.281 C46.9292,181.281 47.5971,181.533 48.1431,182.037 C48.6891,182.541 49.1553,183.288 49.5417,184.279 C50.0121,185.455 50.5204,186.438 51.0664,187.228 C51.6124,188.018 52.381,188.669 53.3723,189.181 C54.3635,189.693 55.6655,189.95 57.2784,189.95 C59.4961,189.95 61.2979,189.433 62.684,188.4 C64.07,187.367 64.7631,186.077 64.7631,184.531 C64.7631,183.305 64.3892,182.31 63.6416,181.545 C62.894,180.781 61.928,180.197 60.7435,179.794 C59.5591,179.39 57.9756,178.962 55.9931,178.508 C53.3387,177.887 51.1168,177.16 49.3275,176.329 C47.5383,175.497 46.1186,174.363 45.0686,172.926 C44.0185,171.49 43.4935,169.705 43.4935,167.571 C43.4935,165.538 44.0479,163.732 45.1568,162.153 C46.2656,160.574 47.8701,159.36 49.9701,158.512 C52.0702,157.663 54.5399,157.239 57.3792,157.239 C59.6473,157.239 61.6087,157.52 63.2636,158.083 C64.9185,158.646 66.2919,159.394 67.3839,160.326 C68.476,161.258 69.274,162.237 69.778,163.262 C70.282,164.287 70.534,165.286 70.534,166.261 C70.534,167.151 70.219,167.953 69.589,168.667 C68.959,169.382 68.1736,169.739 67.2327,169.739 C66.3759,169.739 65.7249,169.524 65.2797,169.096 C64.8345,168.667 64.3514,167.966 63.8306,166.992 C63.1586,165.597 62.3522,164.509 61.4113,163.728 C60.4705,162.947 58.9585,162.556 56.8752,162.556 C54.9431,162.556 53.3849,162.98 52.2004,163.829 C51.016,164.677 50.4238,165.698 50.4238,166.891 C50.4238,167.63 50.6254,168.268 51.0286,168.806 C51.4318,169.344 51.9862,169.806 52.6918,170.192 C53.3975,170.579 54.1115,170.881 54.8339,171.099 C55.5563,171.318 56.7492,171.637 58.4124,172.057 C60.4957,172.544 62.3816,173.082 64.07,173.67 C65.7585,174.258 67.1949,174.972 68.3794,175.812 C69.5638,176.652 70.4878,177.715 71.1515,179 C71.8151,180.285 72.1469,181.86 72.1469,183.725 M102.836,163.64 L85.9761,163.64 L85.9761,172.712 L101.5,172.712 C102.642,172.712 103.495,172.968 104.058,173.481 C104.621,173.993 104.902,174.669 104.902,175.51 C104.902,176.35 104.625,177.034 104.07,177.563 C103.516,178.093 102.659,178.357 101.5,178.357 L85.9761,178.357 L85.9761,188.866 L103.415,188.866 C104.591,188.866 105.477,189.139 106.074,189.685 C106.67,190.231 106.968,190.958 106.968,191.865 C106.968,192.739 106.67,193.448 106.074,193.994 C105.477,194.54 104.591,194.813 103.415,194.813 L83.078,194.813 C81.4484,194.813 80.2765,194.452 79.5625,193.73 C78.8485,193.007 78.4915,191.84 78.4915,190.227 L78.4915,162.455 C78.4915,161.38 78.6511,160.502 78.9703,159.822 C79.2895,159.142 79.7893,158.646 80.4697,158.335 C81.1502,158.024 82.0196,157.869 83.078,157.869 L102.836,157.869 C104.028,157.869 104.915,158.134 105.494,158.663 C106.074,159.192 106.364,159.885 106.364,160.742 C106.364,161.615 106.074,162.317 105.494,162.846 C104.915,163.375 104.028,163.64 102.836,163.64 M122.965,179.012 L120.344,179.012 L120.344,190.882 C120.344,192.445 120,193.595 119.311,194.335 C118.622,195.074 117.723,195.443 116.614,195.443 C115.421,195.443 114.497,195.057 113.842,194.284 C113.187,193.511 112.859,192.377 112.859,190.882 L112.859,162.455 C112.859,160.843 113.221,159.675 113.943,158.953 C114.665,158.23 115.833,157.869 117.446,157.869 L129.618,157.869 C131.298,157.869 132.734,157.94 133.927,158.083 C135.12,158.226 136.195,158.516 137.153,158.953 C138.312,159.44 139.337,160.137 140.228,161.044 C141.118,161.951 141.794,163.006 142.256,164.207 C142.718,165.408 142.949,166.681 142.949,168.025 C142.949,170.78 142.172,172.981 140.618,174.628 C139.064,176.274 136.708,177.442 133.549,178.13 C134.877,178.836 136.145,179.878 137.355,181.255 C138.564,182.633 139.644,184.099 140.593,185.653 C141.542,187.207 142.281,188.61 142.811,189.861 C143.34,191.113 143.604,191.974 143.604,192.445 C143.604,192.932 143.449,193.415 143.138,193.894 C142.827,194.372 142.403,194.75 141.866,195.028 C141.328,195.305 140.706,195.443 140.001,195.443 C139.161,195.443 138.455,195.246 137.884,194.851 C137.313,194.456 136.821,193.957 136.41,193.352 C135.998,192.747 135.439,191.856 134.734,190.68 L131.735,185.691 C130.66,183.859 129.698,182.465 128.849,181.507 C128.001,180.55 127.14,179.894 126.266,179.542 C125.393,179.189 124.292,179.012 122.965,179.012 M127.249,163.489 L120.344,163.489 L120.344,173.645 L127.047,173.645 C128.845,173.645 130.357,173.489 131.584,173.178 C132.81,172.868 133.747,172.338 134.394,171.591 C135.04,170.843 135.364,169.814 135.364,168.504 C135.364,167.479 135.103,166.576 134.583,165.795 C134.062,165.013 133.339,164.43 132.415,164.043 C131.542,163.674 129.82,163.489 127.249,163.489 M172.106,163.64 L157.363,163.64 L157.363,173.09 L169.686,173.09 C170.829,173.09 171.681,173.346 172.244,173.859 C172.807,174.371 173.088,175.056 173.088,175.913 C173.088,176.77 172.803,177.45 172.232,177.954 C171.66,178.458 170.812,178.71 169.686,178.71 L157.363,178.71 L157.363,190.882 C157.363,192.428 157.015,193.574 156.317,194.322 C155.62,195.07 154.725,195.443 153.633,195.443 C152.525,195.443 151.622,195.065 150.924,194.309 C150.227,193.553 149.878,192.411 149.878,190.882 L149.878,162.455 C149.878,161.38 150.038,160.502 150.357,159.822 C150.676,159.142 151.176,158.646 151.857,158.335 C152.537,158.024 153.407,157.869 154.465,157.869 L172.106,157.869 C173.298,157.869 174.185,158.134 174.764,158.663 C175.344,159.192 175.634,159.885 175.634,160.742 C175.634,161.615 175.344,162.317 174.764,162.846 C174.185,163.375 173.298,163.64 172.106,163.64 M188.532,161.775 L188.532,188.664 L203.702,188.664 C204.912,188.664 205.84,188.958 206.487,189.546 C207.134,190.134 207.457,190.874 207.457,191.764 C207.457,192.671 207.138,193.406 206.5,193.969 C205.861,194.532 204.929,194.813 203.702,194.813 L185.633,194.813 C184.004,194.813 182.832,194.452 182.118,193.73 C181.404,193.007 181.047,191.84 181.047,190.227 L181.047,161.775 C181.047,160.263 181.387,159.129 182.068,158.373 C182.748,157.617 183.643,157.239 184.751,157.239 C185.877,157.239 186.788,157.613 187.486,158.36 C188.183,159.108 188.532,160.246 188.532,161.775 M226.049,157.239 C229.879,157.239 233.168,158.016 235.915,159.57 C238.662,161.124 240.741,163.333 242.152,166.198 C243.563,169.062 244.269,172.427 244.269,176.291 C244.269,179.147 243.882,181.743 243.11,184.078 C242.337,186.413 241.178,188.438 239.632,190.151 C238.086,191.865 236.188,193.175 233.936,194.083 C231.685,194.99 229.106,195.443 226.2,195.443 C223.31,195.443 220.723,194.977 218.438,194.045 C216.153,193.112 214.246,191.798 212.717,190.101 C211.188,188.404 210.033,186.363 209.252,183.977 C208.471,181.591 208.08,179.012 208.08,176.24 C208.08,173.401 208.488,170.797 209.303,168.428 C210.117,166.059 211.298,164.043 212.843,162.38 C214.389,160.717 216.271,159.444 218.488,158.562 C220.706,157.68 223.226,157.239 226.049,157.239 M236.683,176.24 C236.683,173.535 236.247,171.192 235.373,169.209 C234.499,167.227 233.252,165.727 231.631,164.711 C230.009,163.695 228.149,163.186 226.049,163.186 C224.553,163.186 223.171,163.468 221.903,164.031 C220.635,164.593 219.543,165.412 218.627,166.488 C217.711,167.563 216.989,168.936 216.46,170.608 C215.93,172.28 215.666,174.157 215.666,176.24 C215.666,178.34 215.93,180.239 216.46,181.936 C216.989,183.633 217.736,185.04 218.703,186.157 C219.669,187.274 220.777,188.11 222.029,188.664 C223.281,189.219 224.654,189.496 226.149,189.496 C228.065,189.496 229.825,189.017 231.429,188.06 C233.033,187.102 234.31,185.623 235.259,183.624 C236.209,181.625 236.683,179.164 236.683,176.24 M277.451,188.992 L271.479,166.84 L265.43,188.992 C264.96,190.672 264.586,191.877 264.309,192.608 C264.032,193.339 263.549,193.994 262.86,194.574 C262.171,195.154 261.256,195.443 260.113,195.443 C259.189,195.443 258.429,195.271 257.832,194.927 C257.236,194.582 256.753,194.095 256.383,193.465 C256.014,192.835 255.711,192.087 255.476,191.222 C255.241,190.357 255.031,189.555 254.846,188.816 L248.697,163.942 C248.327,162.497 248.143,161.397 248.143,160.641 C248.143,159.683 248.479,158.877 249.151,158.222 C249.823,157.567 250.654,157.239 251.646,157.239 C253.006,157.239 253.922,157.676 254.393,158.549 C254.863,159.423 255.275,160.691 255.627,162.355 L260.466,183.927 L265.884,163.741 C266.287,162.195 266.649,161.019 266.968,160.213 C267.287,159.406 267.808,158.709 268.53,158.121 C269.253,157.533 270.235,157.239 271.479,157.239 C272.739,157.239 273.717,157.546 274.415,158.159 C275.112,158.772 275.595,159.44 275.864,160.162 C276.132,160.885 276.494,162.077 276.947,163.741 L282.416,183.927 L287.254,162.355 C287.49,161.229 287.712,160.347 287.922,159.709 C288.132,159.07 288.493,158.499 289.006,157.995 C289.518,157.491 290.262,157.239 291.236,157.239 C292.211,157.239 293.038,157.562 293.718,158.209 C294.399,158.856 294.739,159.667 294.739,160.641 C294.739,161.33 294.554,162.43 294.185,163.942 L288.036,188.816 C287.616,190.496 287.267,191.726 286.99,192.508 C286.713,193.289 286.242,193.973 285.579,194.561 C284.915,195.149 283.978,195.443 282.769,195.443 C281.626,195.443 280.711,195.158 280.022,194.587 C279.333,194.015 278.854,193.373 278.585,192.659 C278.317,191.945 277.939,190.722 277.451,188.992 Z" style="stroke:none;fill-rule:nonzero;fill:#334b4a;fill-opacity:1;"/>
        </g>
        <g id="Shape21">
            <desc shapeID="21" type="0" basicInfo-basicType="0" basicInfo-roundedRectRadius="12" basicInfo-polygonSides="6" basicInfo-starPoints="5" bounding="rect(-17.3311,-7.34375,34.6621,14.6875)" text="risa" font-familyName="Arial Rounded MT Bold" font-pixelSize="20" font-bold="0" font-underline="0" font-alignment="1" strokeStyle="0" markerStart="0" markerEnd="0" shadowEnabled="0" shadowOffsetX="0" shadowOffsetY="2" shadowBlur="4" shadowOpacity="160" blurEnabled="0" blurRadius="4" transform="matrix(0.967555,0,0,0.967555,377.422,183.447)" pers-center="0,0" pers-size="0,0" pers-start="0,0" pers-end="0,0" locked="0" mesh="" flag=""/>
            <path id="shapePath21" d="M363.233,186.829 L363.233,188.984 C363.233,189.506 363.11,189.899 362.865,190.16 C362.619,190.421 362.307,190.552 361.929,190.552 C361.558,190.552 361.252,190.42 361.013,190.155 C360.773,189.891 360.654,189.5 360.654,188.984 L360.654,181.803 C360.654,180.644 361.073,180.064 361.91,180.064 C362.339,180.064 362.647,180.199 362.836,180.47 C363.025,180.741 363.129,181.141 363.148,181.67 C363.457,181.141 363.773,180.741 364.098,180.47 C364.422,180.199 364.855,180.064 365.397,180.064 C365.939,180.064 366.465,180.199 366.975,180.47 C367.485,180.741 367.74,181.1 367.74,181.547 C367.74,181.862 367.632,182.122 367.414,182.327 C367.197,182.532 366.962,182.634 366.71,182.634 C366.616,182.634 366.388,182.576 366.025,182.459 C365.663,182.343 365.343,182.284 365.066,182.284 C364.688,182.284 364.38,182.384 364.14,182.582 C363.901,182.781 363.715,183.075 363.583,183.466 C363.451,183.856 363.359,184.321 363.309,184.859 C363.258,185.398 363.233,186.055 363.233,186.829 M371.718,181.529 L371.718,188.984 C371.718,189.5 371.595,189.891 371.35,190.155 C371.104,190.42 370.792,190.552 370.414,190.552 C370.036,190.552 369.729,190.417 369.493,190.146 C369.257,189.875 369.139,189.488 369.139,188.984 L369.139,181.604 C369.139,181.094 369.257,180.71 369.493,180.451 C369.729,180.193 370.036,180.064 370.414,180.064 C370.792,180.064 371.104,180.193 371.35,180.451 C371.595,180.71 371.718,181.069 371.718,181.529 M370.443,178.864 C370.084,178.864 369.776,178.754 369.521,178.533 C369.266,178.313 369.139,178.001 369.139,177.598 C369.139,177.232 369.269,176.932 369.531,176.695 C369.792,176.459 370.096,176.341 370.443,176.341 C370.776,176.341 371.073,176.448 371.331,176.662 C371.589,176.877 371.718,177.188 371.718,177.598 C371.718,177.995 371.592,178.305 371.34,178.529 C371.088,178.752 370.789,178.864 370.443,178.864 M382.675,187.179 C382.675,187.891 382.502,188.5 382.155,189.007 C381.809,189.514 381.297,189.899 380.62,190.16 C379.943,190.421 379.119,190.552 378.149,190.552 C377.223,190.552 376.429,190.41 375.768,190.127 C375.107,189.843 374.618,189.489 374.303,189.064 C373.988,188.639 373.831,188.212 373.831,187.784 C373.831,187.5 373.932,187.258 374.133,187.056 C374.335,186.854 374.59,186.754 374.899,186.754 C375.17,186.754 375.377,186.82 375.522,186.952 C375.667,187.084 375.806,187.27 375.938,187.51 C376.203,187.969 376.519,188.313 376.888,188.54 C377.256,188.766 377.759,188.88 378.395,188.88 C378.911,188.88 379.335,188.765 379.666,188.535 C379.996,188.305 380.162,188.042 380.162,187.746 C380.162,187.292 379.99,186.962 379.647,186.754 C379.303,186.546 378.738,186.347 377.951,186.158 C377.062,185.938 376.34,185.706 375.782,185.464 C375.225,185.221 374.779,184.902 374.445,184.505 C374.111,184.108 373.944,183.62 373.944,183.04 C373.944,182.524 374.099,182.036 374.407,181.576 C374.716,181.116 375.171,180.749 375.773,180.475 C376.374,180.201 377.1,180.064 377.951,180.064 C378.618,180.064 379.218,180.133 379.751,180.272 C380.283,180.41 380.727,180.596 381.083,180.829 C381.439,181.062 381.71,181.321 381.896,181.604 C382.081,181.888 382.174,182.165 382.174,182.436 C382.174,182.732 382.075,182.974 381.877,183.163 C381.678,183.352 381.396,183.447 381.031,183.447 C380.766,183.447 380.541,183.371 380.355,183.22 C380.17,183.069 379.957,182.842 379.718,182.54 C379.522,182.288 379.292,182.086 379.028,181.935 C378.763,181.784 378.404,181.708 377.951,181.708 C377.484,181.708 377.097,181.807 376.788,182.006 C376.48,182.204 376.325,182.451 376.325,182.747 C376.325,183.018 376.439,183.24 376.666,183.414 C376.892,183.587 377.198,183.73 377.582,183.843 C377.966,183.957 378.496,184.095 379.17,184.259 C379.97,184.455 380.623,184.688 381.13,184.958 C381.637,185.229 382.021,185.549 382.283,185.917 C382.544,186.286 382.675,186.706 382.675,187.179 M391.366,189.097 C390.742,189.582 390.139,189.946 389.557,190.188 C388.974,190.431 388.32,190.552 387.596,190.552 C386.935,190.552 386.353,190.421 385.853,190.16 C385.352,189.899 384.966,189.544 384.695,189.097 C384.424,188.65 384.289,188.165 384.289,187.642 C384.289,186.936 384.513,186.335 384.96,185.837 C385.407,185.34 386.021,185.006 386.802,184.836 C386.966,184.798 387.372,184.713 388.021,184.58 C388.67,184.448 389.226,184.327 389.689,184.217 C390.152,184.106 390.654,183.973 391.196,183.815 C391.164,183.135 391.027,182.636 390.785,182.318 C390.542,181.999 390.04,181.84 389.278,181.84 C388.623,181.84 388.13,181.932 387.799,182.114 C387.468,182.297 387.185,182.571 386.949,182.936 C386.713,183.302 386.546,183.543 386.448,183.659 C386.35,183.776 386.141,183.834 385.82,183.834 C385.53,183.834 385.279,183.741 385.068,183.555 C384.857,183.369 384.752,183.132 384.752,182.842 C384.752,182.388 384.913,181.947 385.234,181.519 C385.555,181.091 386.056,180.738 386.736,180.461 C387.416,180.184 388.264,180.045 389.278,180.045 C390.412,180.045 391.303,180.179 391.952,180.447 C392.601,180.714 393.059,181.138 393.327,181.718 C393.594,182.297 393.728,183.066 393.728,184.023 C393.728,184.628 393.727,185.141 393.724,185.563 C393.72,185.985 393.716,186.454 393.709,186.971 C393.709,187.456 393.79,187.962 393.95,188.488 C394.111,189.014 394.191,189.352 394.191,189.503 C394.191,189.768 394.067,190.009 393.818,190.226 C393.569,190.443 393.287,190.552 392.972,190.552 C392.708,190.552 392.446,190.428 392.188,190.179 C391.93,189.93 391.656,189.569 391.366,189.097 M391.196,185.365 C390.818,185.503 390.268,185.65 389.547,185.804 C388.826,185.958 388.327,186.072 388.05,186.144 C387.772,186.217 387.508,186.358 387.256,186.569 C387.004,186.78 386.878,187.075 386.878,187.453 C386.878,187.843 387.026,188.176 387.322,188.45 C387.618,188.724 388.005,188.861 388.484,188.861 C388.994,188.861 389.465,188.749 389.897,188.525 C390.328,188.302 390.645,188.014 390.846,187.661 C391.079,187.27 391.196,186.628 391.196,185.733 L391.196,185.365 Z" style="stroke:none;fill-rule:nonzero;fill:#334b4a;fill-opacity:1;"/>
        </g>
    </g>
</svg>
