<?xml version="1.0"?>
<svg version="1.1" xmlns="http://www.w3.org/2000/svg" xmlns:xlink="http://www.w3.org/1999/xlink" width="250" height="100">
    <desc iVinci="yes" version="4.6" gridStep="20" showGrid="no" snapToGrid="no" codePlatform="0"/>
    <g id="Layer1" name="Layer 3" opacity="1">
        <g id="Shape1">
            <desc shapeID="1" type="0" basicInfo-basicType="0" basicInfo-roundedRectRadius="12" basicInfo-polygonSides="6" basicInfo-starPoints="5" bounding="rect(-556.357,-307.436,1112.71,614.873)" text="" font-familyName="Helvetica" font-pixelSize="20" font-bold="0" font-underline="0" font-alignment="1" strokeStyle="0" markerStart="0" markerEnd="0" shadowEnabled="0" shadowOffsetX="0" shadowOffsetY="2" shadowBlur="4" shadowOpacity="160" blurEnabled="0" blurRadius="4" transform="matrix(0.158546,0,0,0.158546,159.373,50.2759)" pers-center="0,0" pers-size="0,0" pers-start="0,0" pers-end="0,0" locked="0" mesh="" flag=""/>
            <path id="shapePath1" d="M73.9879,23.9984 C73.9879,23.9984 79.396,23.7904 79.396,23.7904 C79.396,23.7904 88.4443,26.4944 88.3402,26.4944 C88.2362,26.4944 121.933,24.1024 121.933,24.1024 C121.933,24.1024 140.134,15.8861 140.134,15.8861 C140.134,15.8861 153.966,13.5979 153.966,13.5979 C153.966,13.5979 158.854,12.142 158.854,12.142 C158.854,12.142 157.694,5.08039 157.694,5.08039 C157.694,5.08039 160.376,4.39421 160.376,4.39421 C160.376,4.39421 163.121,6.70232 163.121,6.70232 C163.121,6.70232 166.177,5.51704 166.177,5.51704 C166.177,5.51704 171.002,1.53326 171.002,1.53326 C171.002,1.53326 173.259,2.37989 173.259,2.37989 C173.259,2.37989 174.106,6.29026 174.106,6.29026 C174.106,6.29026 175.641,8.98823 175.641,8.98823 C175.641,8.98823 185.375,10.5984 185.375,10.5984 C185.375,10.5984 186.37,16.3419 186.37,16.3419 C186.37,16.3419 189.663,20.7836 189.663,20.7836 C189.663,20.7836 194.624,19.9357 194.624,19.9357 C194.624,19.9357 212.337,31.8906 212.337,31.8906 C212.337,31.8906 235.996,40.4107 235.996,40.4107 C235.996,40.4107 246.229,40.207 246.229,40.207 C246.229,40.207 247.581,44.323 247.581,44.323 C247.581,44.323 244.759,55.4359 244.759,55.4359 C244.759,55.4359 232.765,64.6674 232.765,64.6674 C232.765,64.6674 222.769,63.9617 222.769,63.9617 C222.769,63.9617 212.597,55.5536 212.597,55.5536 C212.597,55.5536 207.223,45.9287 207.223,45.9287 C207.223,45.9287 202.675,45.2982 202.675,45.2982 C202.675,45.2982 194.496,59.1459 194.496,59.1459 C194.496,59.1459 197.998,75.622 197.998,75.622 C197.998,75.622 198.258,86.1302 198.258,86.1302 C198.258,86.1302 185.778,96.2927 178.288,98.1548 C169.721,100.285 151.295,97.8062 151.295,97.8062 C151.295,97.8062 156.354,64.9839 156.354,64.9839 C156.354,64.9839 144.843,60.9219 144.843,60.9219 C144.843,60.9219 137.063,49.3342 137.063,49.3342 C137.063,49.3342 136.897,37.3324 136.897,37.3324 C136.897,37.3324 132.179,36.422 132.179,36.422 C132.179,36.422 127.213,39.4017 127.213,39.4017 C127.213,39.4017 112.212,53.1375 112.212,53.1375 C112.212,53.1375 92.7345,53.6203 92.7345,53.6203 C92.7345,53.6203 78.0866,49.4351 78.0866,49.4351 C78.0866,49.4351 71.6479,40.582 71.6479,40.582 C71.6479,40.582 71.165,30.924 71.165,30.924 C71.165,30.924 73.9879,23.9984 73.9879,23.9984 Z" style="stroke:none;fill-rule:evenodd;fill:#a0ece9;fill-opacity:1;"/>
        </g>
        <g id="Shape2">
            <desc shapeID="2" type="0" basicInfo-basicType="0" basicInfo-roundedRectRadius="12" basicInfo-polygonSides="6" basicInfo-starPoints="5" bounding="rect(-48.971,-30.162,97.942,60.324)" text="" font-familyName="Helvetica" font-pixelSize="20" font-bold="0" font-underline="0" font-alignment="1" strokeStyle="0" markerStart="0" markerEnd="0" shadowEnabled="0" shadowOffsetX="0" shadowOffsetY="2" shadowBlur="4" shadowOpacity="160" blurEnabled="0" blurRadius="4" transform="matrix(0.158546,0,0,0.158546,167.67,32.291)" pers-center="0,0" pers-size="0,0" pers-start="0,0" pers-end="0,0" locked="0" mesh="" flag=""/>
            <path id="shapePath2" d="M159.906,32.8283 C159.906,32.8283 161.679,29.1208 161.679,29.1208 C161.679,29.1208 166.3,27.5089 166.3,27.5089 C166.3,27.5089 172.103,28.1537 172.103,28.1537 C172.103,28.1537 175.434,31.2701 175.434,31.2701 C175.434,31.2701 173.984,36.8582 173.984,36.8582 C173.984,36.8582 166.623,37.073 166.623,37.073 C166.623,37.073 162.539,37.0194 162.539,37.0194 C162.539,37.0194 159.906,32.8283 159.906,32.8283 Z" style="stroke:none;fill-rule:evenodd;fill:#fafff7;fill-opacity:1;"/>
        </g>
        <g id="Shape3">
            <desc shapeID="3" type="0" basicInfo-basicType="0" basicInfo-roundedRectRadius="12" basicInfo-polygonSides="6" basicInfo-starPoints="5" bounding="rect(-31.8975,-29.9579,63.795,59.916)" text="" font-familyName="Helvetica" font-pixelSize="20" font-bold="0" font-underline="0" font-alignment="1" strokeStyle="0" markerStart="0" markerEnd="0" shadowEnabled="0" shadowOffsetX="0" shadowOffsetY="2" shadowBlur="4" shadowOpacity="160" blurEnabled="0" blurRadius="4" transform="matrix(0.158546,0,0,0.158546,180.394,66.4817)" pers-center="0,0" pers-size="0,0" pers-start="0,0" pers-end="0,0" locked="0" mesh="" flag=""/>
            <path id="shapePath3" d="M175.336,61.732 C175.336,61.732 178.548,62.4153 178.753,62.2786 C178.958,62.142 184.221,61.732 184.221,61.732 C184.221,61.732 185.451,69.5912 185.451,69.5912 C185.451,69.5912 183.332,71.2314 183.332,71.2314 C183.332,71.2314 176.635,69.8646 176.635,69.8646 C176.635,69.8646 175.336,64.124 175.336,64.124 C175.336,64.124 175.336,61.732 175.336,61.732 Z" style="stroke:none;fill-rule:evenodd;fill:#f9fff7;fill-opacity:1;"/>
        </g>
        <g id="Shape4">
            <desc shapeID="4" type="0" basicInfo-basicType="0" basicInfo-roundedRectRadius="12" basicInfo-polygonSides="6" basicInfo-starPoints="5" bounding="rect(-68.6696,-84.4028,137.339,168.806)" text="" font-familyName="Helvetica" font-pixelSize="20" font-bold="0" font-underline="0" font-alignment="1" strokeStyle="0" markerStart="0" markerEnd="0" shadowEnabled="0" shadowOffsetX="0" shadowOffsetY="2" shadowBlur="4" shadowOpacity="160" blurEnabled="0" blurRadius="4" transform="matrix(0.158546,0,0,0.158546,170.232,79.6925)" pers-center="0,0" pers-size="0,0" pers-start="0,0" pers-end="0,0" locked="0" mesh="" flag=""/>
            <path id="shapePath4" d="M159.345,66.3108 C159.345,66.3108 159.559,75.7875 160.291,80.4562 C160.706,83.1052 161.003,86.0875 162.762,88.1116 C164.863,90.5304 167.941,92.3564 171.099,92.8956 C173.954,93.3829 177.417,92.9143 179.574,90.9819 C181.321,89.4169 181.265,86.4025 180.94,84.0795 C180.775,82.8972 179.468,81.7444 178.275,81.6877 C176.188,81.5882 174.418,83.7159 172.329,83.6695 C170.082,83.6195 167.32,83.2143 165.974,81.4142 C162.68,77.0117 159.345,66.3108 159.345,66.3108 Z" style="stroke:none;fill-rule:evenodd;fill:#f9fff7;fill-opacity:1;"/>
        </g>
        <g id="Shape5">
            <desc shapeID="5" type="0" basicInfo-basicType="0" basicInfo-roundedRectRadius="12" basicInfo-polygonSides="6" basicInfo-starPoints="5" bounding="rect(-32.7155,-38.6225,65.4311,77.2449)" text="" font-familyName="Helvetica" font-pixelSize="20" font-bold="0" font-underline="0" font-alignment="1" strokeStyle="0" markerStart="0" markerEnd="0" shadowEnabled="0" shadowOffsetX="0" shadowOffsetY="2" shadowBlur="4" shadowOpacity="160" blurEnabled="0" blurRadius="4" transform="matrix(0.158546,0,0,0.158546,158.469,7.64335)" pers-center="0,0" pers-size="0,0" pers-start="0,0" pers-end="0,0" locked="0" mesh="" flag=""/>
            <path id="shapePath5" d="M161.183,13.0274 C160.353,13.5976 159.134,14.0148 158.218,13.5976 C156.462,12.7981 154.776,11.4497 153.922,9.72025 C153.107,8.06978 153.161,6.00076 153.58,4.20825 C153.842,3.08796 154.685,1.75412 155.823,1.58526 C157.763,1.29766 159.861,1.99209 161.525,3.02978 C162.624,3.71533 163.082,5.14985 163.502,6.37493 C163.716,7.00008 163.743,7.82023 163.35,8.35168 C163.119,8.66354 162.522,8.35295 162.209,8.12369 C161.715,7.76078 161.437,7.16988 161.069,6.67918 C160.79,6.30787 160.734,5.57063 160.271,5.53876 C159.902,5.51323 159.879,6.24477 159.966,6.60308 C160.198,7.55039 160.802,8.36611 161.183,9.26411 C161.436,9.86214 161.867,10.4391 161.867,11.0887 C161.867,11.774 161.748,12.6392 161.183,13.0274 Z" style="stroke:none;fill-rule:evenodd;fill:#334b4a;fill-opacity:1;"/>
        </g>
        <g id="Shape6">
            <desc shapeID="6" type="0" basicInfo-basicType="0" basicInfo-roundedRectRadius="12" basicInfo-polygonSides="6" basicInfo-starPoints="5" bounding="rect(-37.845,-36.0195,75.6901,72.0391)" text="" font-familyName="Helvetica" font-pixelSize="20" font-bold="0" font-underline="0" font-alignment="1" strokeStyle="0" markerStart="0" markerEnd="0" shadowEnabled="0" shadowOffsetX="0" shadowOffsetY="2" shadowBlur="4" shadowOpacity="160" blurEnabled="0" blurRadius="4" transform="matrix(0.158546,0,0,0.158546,169.77,5.71074)" pers-center="0,0" pers-size="0,0" pers-start="0,0" pers-end="0,0" locked="0" mesh="" flag=""/>
            <path id="shapePath6" d="M165.667,6.95061 C165,6.9422 164.2,6.60846 163.897,6.0136 C163.602,5.43396 163.868,4.64107 164.209,4.08743 C164.964,2.86298 165.855,1.62553 167.073,0.859597 C168.113,0.205279 169.442,-0.0956426 170.665,0.0267553 C171.831,0.143287 173.045,0.675843 173.841,1.53643 C174.847,2.625 175.683,4.06492 175.767,5.5451 C175.836,6.76241 174.869,7.82229 174.257,8.87694 C173.734,9.77748 173.371,11.0465 172.383,11.3758 C171.637,11.6242 170.823,10.808 170.353,10.1784 C169.834,9.48306 169.573,8.54573 169.624,7.67944 C169.667,6.94347 170.164,6.28598 170.613,5.70127 C171.099,5.06803 171.894,4.71828 172.383,4.08743 C172.579,3.83455 172.726,3.44056 172.591,3.15027 C172.447,2.83983 172.029,2.51577 171.706,2.62976 C171.251,2.79021 171.175,3.44659 170.821,3.77494 C169.936,4.59795 169.039,5.43158 168.01,6.0656 C167.299,6.50351 166.502,6.96123 165.667,6.95061 Z" style="stroke:none;fill-rule:evenodd;fill:#334b4a;fill-opacity:1;"/>
        </g>
        <g id="Shape7">
            <desc shapeID="7" type="0" basicInfo-basicType="0" basicInfo-roundedRectRadius="12" basicInfo-polygonSides="6" basicInfo-starPoints="5" bounding="rect(-45.1011,-32.5464,90.2023,65.093)" text="" font-familyName="Helvetica" font-pixelSize="20" font-bold="0" font-underline="0" font-alignment="1" strokeStyle="0" markerStart="0" markerEnd="0" shadowEnabled="0" shadowOffsetX="0" shadowOffsetY="2" shadowBlur="4" shadowOpacity="160" blurEnabled="0" blurRadius="4" transform="matrix(0.158546,0,0,0.158546,181.239,12.0334)" pers-center="0,0" pers-size="0,0" pers-start="0,0" pers-end="0,0" locked="0" mesh="" flag=""/>
            <path id="shapePath7" d="M175.514,10.2181 C176.501,10.5401 177.456,11.0199 178.485,11.1565 C179.53,11.2951 180.603,10.8735 181.645,11.0313 C182.369,11.1411 183.616,11.2065 183.647,11.9385 C183.679,12.7101 182.326,12.7507 181.739,13.2523 C181.245,13.6742 180.219,14.075 180.425,14.6913 C180.78,15.7567 181.932,16.4561 182.959,16.9122 C183.817,17.294 184.847,17.2247 185.774,17.0687 C186.544,16.939 187.599,16.802 187.898,16.0805 C188.485,14.6626 188.544,12.9457 188.088,11.4803 C187.666,10.1272 186.674,8.84318 185.432,8.16048 C183.804,7.26597 181.825,7.21285 179.978,7.02228 C178.734,6.89418 177.367,6.68981 176.231,7.21206 C175.233,7.67105 174.352,8.65657 174.097,9.72564 C173.981,10.2117 175.038,10.063 175.514,10.2181 Z" style="stroke:none;fill-rule:evenodd;fill:#334b4a;fill-opacity:1;"/>
        </g>
        <g id="Shape8">
            <desc shapeID="8" type="0" basicInfo-basicType="0" basicInfo-roundedRectRadius="12" basicInfo-polygonSides="6" basicInfo-starPoints="5" bounding="rect(-199.151,-161.505,398.303,323.011)" text="" font-familyName="Helvetica" font-pixelSize="20" font-bold="0" font-underline="0" font-alignment="1" strokeStyle="0" markerStart="0" markerEnd="0" shadowEnabled="0" shadowOffsetX="0" shadowOffsetY="2" shadowBlur="4" shadowOpacity="160" blurEnabled="0" blurRadius="4" transform="matrix(0.158546,0,0,0.158546,217.543,42.036)" pers-center="0,0" pers-size="0,0" pers-start="0,0" pers-end="0,0" locked="0" mesh="" flag=""/>
            <path id="shapePath8" d="M185.983,18.823 C186.147,17.6206 187.545,16.2549 188.743,16.4485 C192.669,17.0829 196.267,19.1312 199.751,21.048 C204.476,23.6471 208.517,27.3826 213.266,29.9389 C217.036,31.969 221.142,33.3152 225.179,34.7402 C229.211,36.163 233.225,37.8119 237.449,38.4744 C239.403,38.7809 241.447,36.9413 243.316,37.5853 C245.458,38.3225 247.683,40.0283 248.296,42.2086 C249.419,46.2032 249.42,50.716 248.119,54.6559 C246.979,58.1014 244.409,61.2222 241.361,63.1914 C237.425,65.7341 232.708,67.4991 228.025,67.6368 C224.202,67.7493 220.384,65.9865 217.177,63.9026 C214.255,62.0032 212.192,58.9666 210.242,56.0785 C209.066,54.3363 208.623,52.1958 207.93,50.2104 C207.32,48.4572 204.551,45.3772 206.338,44.8733 C208.397,44.293 209.533,47.7362 210.913,49.3695 C212.122,50.8013 212.652,52.797 214.068,54.0236 C216.655,56.2625 219.487,58.4012 222.702,59.5735 C225.967,60.764 229.599,61.4523 233.036,60.9413 C235.541,60.5689 237.709,58.7819 239.571,57.0658 C241.339,55.4374 242.533,53.2523 243.675,51.1384 C244.575,49.4745 245.346,47.6856 245.652,45.819 C245.842,44.656 245.729,43.3319 245.119,42.3234 C244.867,41.9065 244.127,42.3672 243.675,42.5514 C242.866,42.8815 242.252,43.6719 241.395,43.8432 C239.656,44.1913 237.797,44.5061 236.076,44.0712 C233.074,43.3124 230.509,41.3081 227.565,40.3476 C224.503,39.3488 221.112,39.466 218.142,38.2198 C214.704,36.7767 211.663,34.5073 208.595,32.3864 C205.592,30.3106 202.879,27.8434 199.961,25.6501 C198.166,24.3004 196.598,22.4432 194.458,21.7602 C193.324,21.3984 192.233,22.7865 191.043,22.8039 C189.982,22.8195 188.84,22.5108 188.007,21.8552 C187.052,21.1038 185.819,20.027 185.983,18.823 Z" style="stroke:none;fill-rule:evenodd;fill:#334b4a;fill-opacity:1;"/>
        </g>
        <g id="Shape9">
            <desc shapeID="9" type="0" basicInfo-basicType="0" basicInfo-roundedRectRadius="12" basicInfo-polygonSides="6" basicInfo-starPoints="5" bounding="rect(-12.4222,-17.2483,24.8444,34.4964)" text="" font-familyName="Helvetica" font-pixelSize="20" font-bold="0" font-underline="0" font-alignment="1" strokeStyle="0" markerStart="0" markerEnd="0" shadowEnabled="0" shadowOffsetX="0" shadowOffsetY="2" shadowBlur="4" shadowOpacity="160" blurEnabled="0" blurRadius="4" transform="matrix(0.158546,0,0,0.158546,161.635,24.1681)" pers-center="0,0" pers-size="0,0" pers-start="0,0" pers-end="0,0" locked="0" mesh="" flag=""/>
            <path id="shapePath9" d="M163.206,26.7395 C162.54,27.0536 161.61,26.8904 161.016,26.4551 C160.335,25.9558 159.996,25.0565 159.793,24.2368 C159.602,23.4635 159.622,22.6024 159.879,21.8482 C159.978,21.5547 160.457,21.3351 160.732,21.4785 C161.463,21.8598 162.003,22.5518 162.495,23.2131 C162.953,23.8288 163.395,24.5084 163.547,25.2607 C163.647,25.7567 163.663,26.5236 163.206,26.7395 Z" style="stroke:none;fill-rule:evenodd;fill:#334b4a;fill-opacity:1;"/>
        </g>
        <g id="Shape10">
            <desc shapeID="10" type="0" basicInfo-basicType="0" basicInfo-roundedRectRadius="12" basicInfo-polygonSides="6" basicInfo-starPoints="5" bounding="rect(-9.91787,-17.5667,19.8357,35.1335)" text="" font-familyName="Helvetica" font-pixelSize="20" font-bold="0" font-underline="0" font-alignment="1" strokeStyle="0" markerStart="0" markerEnd="0" shadowEnabled="0" shadowOffsetX="0" shadowOffsetY="2" shadowBlur="4" shadowOpacity="160" blurEnabled="0" blurRadius="4" transform="matrix(0.158546,0,0,0.158546,170.907,23.3583)" pers-center="0,0" pers-size="0,0" pers-start="0,0" pers-end="0,0" locked="0" mesh="" flag=""/>
            <path id="shapePath10" d="M169.576,24.4076 C169.354,23.8078 169.306,23.1403 169.348,22.5022 C169.392,21.8485 169.216,20.8208 169.832,20.5968 C170.37,20.4012 170.575,21.4705 170.913,21.9335 C171.315,22.4859 171.777,23.013 172.05,23.6398 C172.298,24.2091 172.573,24.8514 172.448,25.4597 C172.372,25.8312 171.917,26.1204 171.538,26.1423 C171.14,26.1654 170.785,25.8375 170.486,25.5736 C170.117,25.2469 169.747,24.8699 169.576,24.4076 Z" style="stroke:none;fill-rule:evenodd;fill:#334b4a;fill-opacity:1;"/>
        </g>
        <g id="Shape11">
            <desc shapeID="11" type="0" basicInfo-basicType="0" basicInfo-roundedRectRadius="12" basicInfo-polygonSides="6" basicInfo-starPoints="5" bounding="rect(0,0,0,0)" text="" font-familyName="Helvetica" font-pixelSize="20" font-bold="0" font-underline="0" font-alignment="1" strokeStyle="0" markerStart="0" markerEnd="0" shadowEnabled="0" shadowOffsetX="0" shadowOffsetY="2" shadowBlur="4" shadowOpacity="160" blurEnabled="0" blurRadius="4" transform="matrix(0.158546,0,0,0.158546,167.74,33.3417)" pers-center="0,0" pers-size="0,0" pers-start="0,0" pers-end="0,0" locked="0" mesh="" flag=""/>
            <path id="shapePath11" d="M167.74,33.3417 Z" style="stroke:none;fill-rule:evenodd;fill:#334b4a;fill-opacity:1;"/>
        </g>
        <g id="Shape12">
            <desc shapeID="12" type="0" basicInfo-basicType="0" basicInfo-roundedRectRadius="12" basicInfo-polygonSides="6" basicInfo-starPoints="5" bounding="rect(-15.2408,-25.2381,30.4815,50.4761)" text="" font-familyName="Helvetica" font-pixelSize="20" font-bold="0" font-underline="0" font-alignment="1" strokeStyle="0" markerStart="0" markerEnd="0" shadowEnabled="0" shadowOffsetX="0" shadowOffsetY="2" shadowBlur="4" shadowOpacity="160" blurEnabled="0" blurRadius="4" transform="matrix(0.158546,0,0,0.158546,167.605,29.4761)" pers-center="0,0" pers-size="0,0" pers-start="0,0" pers-end="0,0" locked="0" mesh="" flag=""/>
            <path id="shapePath12" d="M167.694,33.4428 C167.321,33.6419 166.935,32.9358 166.811,32.5313 C166.628,31.9317 166.903,31.2742 166.84,30.6503 C166.81,30.3543 166.691,30.0653 166.537,29.8112 C166.147,29.171 165.401,28.7156 165.22,27.9882 C165.085,27.4476 165.417,26.8717 165.683,26.3821 C165.885,26.0107 166.158,25.52 166.58,25.4851 C167.468,25.4117 168.366,25.7394 169.184,26.0928 C169.508,26.2325 169.764,26.5649 169.864,26.903 C170.033,27.4725 170.073,28.1012 169.951,28.6826 C169.883,29.0086 169.577,29.2415 169.329,29.4639 C169.049,29.7151 168.543,29.7436 168.389,30.0861 C168.162,30.5877 168.413,31.1964 168.302,31.7356 C168.179,32.3271 168.227,33.1582 167.694,33.4428 Z" style="stroke:none;fill-rule:evenodd;fill:#334b4a;fill-opacity:1;"/>
        </g>
        <g id="Shape13">
            <desc shapeID="13" type="0" basicInfo-basicType="0" basicInfo-roundedRectRadius="12" basicInfo-polygonSides="6" basicInfo-starPoints="5" bounding="rect(-54.8005,-38.3973,109.601,76.7947)" text="" font-familyName="Helvetica" font-pixelSize="20" font-bold="0" font-underline="0" font-alignment="1" strokeStyle="0" markerStart="0" markerEnd="0" shadowEnabled="0" shadowOffsetX="0" shadowOffsetY="2" shadowBlur="4" shadowOpacity="160" blurEnabled="0" blurRadius="4" transform="matrix(0.158546,0,0,0.158546,167.691,32.801)" pers-center="0,0" pers-size="0,0" pers-start="0,0" pers-end="0,0" locked="0" mesh="" flag=""/>
            <path id="shapePath13" d="M165.932,27.9652 C165.557,28.5068 164.786,28.6219 164.261,29.0203 C163.288,29.76 162.13,30.3581 161.448,31.3724 C161.019,32.0102 160.998,32.9026 161.14,33.6584 C161.279,34.3982 161.581,35.2737 162.246,35.6269 C163.183,36.1248 164.353,35.9608 165.413,35.9299 C166.572,35.8961 167.716,35.6444 168.856,35.4341 C169.846,35.2517 170.899,35.2047 171.799,34.7527 C172.564,34.3684 173.284,33.7651 173.685,33.0086 C174.032,32.353 174.04,31.5211 173.897,30.793 C173.804,30.3196 173.432,29.8971 173.025,29.638 C172.099,29.0487 171.003,28.7827 170.008,28.3181 C169.572,28.1144 168.916,28.0808 168.735,27.6346 C168.603,27.3084 169.054,26.8987 169.395,26.8097 C170.058,26.6369 170.797,26.7084 171.446,26.9275 C172.554,27.3022 173.653,27.8106 174.557,28.5539 C175.246,29.1201 175.85,29.8871 176.089,30.7459 C176.431,31.9728 176.461,33.3115 176.23,34.5642 C175.995,35.8456 175.746,37.3648 174.722,38.1703 C173.717,38.9612 172.202,38.6385 170.927,38.736 C169.423,38.8511 167.901,38.9745 166.402,38.8067 C165.481,38.7037 164.677,38.0828 163.762,37.9347 C163.239,37.8499 162.674,38.3238 162.183,38.1232 C161.123,37.6904 159.922,37.1502 159.378,36.1433 C158.806,35.0839 159.019,33.7323 159.166,32.5372 C159.291,31.5138 159.571,30.4474 160.18,29.6146 C160.772,28.8023 161.702,28.2626 162.607,27.8232 C163.576,27.3527 164.635,26.8816 165.71,26.9275 C166.064,26.9426 166.133,27.6744 165.932,27.9652 Z" style="stroke:none;fill-rule:evenodd;fill:#334b4a;fill-opacity:1;"/>
        </g>
        <g id="Shape14">
            <desc shapeID="14" type="0" basicInfo-basicType="0" basicInfo-roundedRectRadius="12" basicInfo-polygonSides="6" basicInfo-starPoints="5" bounding="rect(-88.0275,-108.327,176.055,216.653)" text="" font-familyName="Helvetica" font-pixelSize="20" font-bold="0" font-underline="0" font-alignment="1" strokeStyle="0" markerStart="0" markerEnd="0" shadowEnabled="0" shadowOffsetX="0" shadowOffsetY="2" shadowBlur="4" shadowOpacity="160" blurEnabled="0" blurRadius="4" transform="matrix(0.158546,0,0,0.158546,172.956,67.7684)" pers-center="0,0" pers-size="0,0" pers-start="0,0" pers-end="0,0" locked="0" mesh="" flag=""/>
            <path id="shapePath14" d="M178.493,82.0344 C177.651,83.1807 176.359,84.0536 175.006,84.4925 C173.371,85.0231 171.571,85.0087 169.861,84.8356 C168.506,84.6983 166.946,84.5318 165.974,83.578 C163.752,81.3977 161.969,78.7095 160.715,75.8606 C159.6,73.3296 159.008,70.5088 159,67.7431 C158.989,64.0808 159.363,60.3078 160.658,56.8818 C161.387,54.9513 163.178,53.545 164.831,52.3085 C166.049,51.397 167.539,50.5937 169.061,50.5937 C170.373,50.5937 171.673,51.3851 172.605,52.3085 C173.709,53.4012 174.387,54.8988 174.892,56.3673 C175.432,57.9374 175.376,59.6535 175.692,61.2835 C176.082,63.2943 176.139,65.4304 177.007,67.2858 C177.443,68.2186 178.457,68.8334 179.408,69.2295 C180.585,69.7198 181.906,69.8796 183.181,69.8583 C184.22,69.8408 185.209,68.8336 186.211,69.1152 C186.814,69.2848 187.044,70.2947 186.839,70.8872 C186.584,71.6278 185.743,72.0348 185.067,72.4306 C184.386,72.8297 183.619,73.3459 182.838,73.231 C182.128,73.1267 181.862,72.0806 181.18,71.8591 C180.31,71.5766 179.245,72.229 178.436,71.8019 C176.738,70.9053 174.988,69.7525 174.034,68.0862 C173.473,67.1054 174.387,65.8434 174.377,64.7134 C174.368,63.6948 174.281,62.656 173.977,61.6836 C173.417,59.89 172.667,58.1514 171.805,56.4816 C171.136,55.1855 170.601,53.6568 169.404,52.823 C168.668,52.3107 167.492,52.4872 166.717,52.9375 C165.573,53.6016 164.545,54.6686 164.088,55.91 C163.165,58.4144 162.788,61.1306 162.716,63.7988 C162.635,66.7669 162.973,69.7638 163.63,72.6594 C164.203,75.1822 164.388,78.261 166.374,79.9194 C168.368,81.5843 171.445,81.1393 174.034,81.3485 C175.262,81.4476 176.476,80.6468 177.693,80.8341 C178.168,80.9071 178.778,81.6468 178.493,82.0344 Z" style="stroke:none;fill-rule:evenodd;fill:#334b4a;fill-opacity:1;"/>
        </g>
        <g id="Shape15">
            <desc shapeID="15" type="0" basicInfo-basicType="0" basicInfo-roundedRectRadius="12" basicInfo-polygonSides="6" basicInfo-starPoints="5" bounding="rect(-92.2459,-97.5691,184.492,195.139)" text="" font-familyName="Helvetica" font-pixelSize="20" font-bold="0" font-underline="0" font-alignment="1" strokeStyle="0" markerStart="0" markerEnd="0" shadowEnabled="0" shadowOffsetX="0" shadowOffsetY="2" shadowBlur="4" shadowOpacity="160" blurEnabled="0" blurRadius="4" transform="matrix(0.158546,0,0,0.158546,189.415,48.1372)" pers-center="0,0" pers-size="0,0" pers-start="0,0" pers-end="0,0" locked="0" mesh="" flag=""/>
            <path id="shapePath15" d="M193.049,32.8565 C193.491,32.3641 194.44,32.9481 194.974,33.3378 C196.418,34.3906 197.721,35.6628 198.825,37.0678 C200.605,39.3334 202.645,41.5611 203.578,44.2873 C204.298,46.3935 204.082,48.797 203.578,50.9653 C202.994,53.4743 202.082,56.0628 200.389,58.0042 C199.051,59.539 196.916,60.2201 194.974,60.8319 C192.848,61.5016 190.541,61.3499 188.357,61.7944 C186.002,62.2737 183.758,63.2687 181.378,63.5993 C180.787,63.6813 180.289,63.0284 179.693,62.9976 C178.308,62.9263 176.815,63.8511 175.542,63.2984 C174.831,62.9899 174.491,61.4637 175.121,61.0123 C176.216,60.2275 177.824,60.9389 179.152,60.7116 C181.463,60.3157 183.819,59.9824 186.01,59.1474 C189.17,57.9432 192.542,56.8526 195.095,54.6351 C197.159,52.842 198.377,50.1675 199.306,47.5962 C199.962,45.7808 200.16,43.7017 199.727,41.8207 C199.356,40.2108 198.15,38.8746 197.02,37.6695 C196.007,36.5895 194.352,36.2243 193.41,35.0825 C192.932,34.5027 192.547,33.4162 193.049,32.8565 Z" style="stroke:none;fill-rule:evenodd;fill:#334b4a;fill-opacity:1;"/>
        </g>
        <g id="Shape16">
            <desc shapeID="16" type="0" basicInfo-basicType="0" basicInfo-roundedRectRadius="12" basicInfo-polygonSides="6" basicInfo-starPoints="5" bounding="rect(-86.2555,-127.962,172.511,255.925)" text="" font-familyName="Helvetica" font-pixelSize="20" font-bold="0" font-underline="0" font-alignment="1" strokeStyle="0" markerStart="0" markerEnd="0" shadowEnabled="0" shadowOffsetX="0" shadowOffsetY="2" shadowBlur="4" shadowOpacity="160" blurEnabled="0" blurRadius="4" transform="matrix(0.158546,0,0,0.158546,147.844,46.7624)" pers-center="0,0" pers-size="0,0" pers-start="0,0" pers-end="0,0" locked="0" mesh="" flag=""/>
            <path id="shapePath16" d="M144.928,26.5565 C141.675,28.3955 138.738,31.061 136.749,34.2248 C135.02,36.9754 133.996,40.3879 134.193,43.6311 C134.457,47.978 135.695,52.4599 138.078,56.1049 C140.51,59.824 144.337,62.5307 148.098,64.8976 C150.261,66.2592 152.905,66.9656 155.459,67.0448 C157.486,67.1076 159.76,66.6393 161.287,65.3067 C161.955,64.7242 161.049,63.2649 160.265,62.8529 C158.771,62.0682 156.917,62.4256 155.255,62.1372 C152.792,61.7096 150.08,61.9171 147.893,60.7057 C145.152,59.1868 142.79,56.8668 141.043,54.2645 C139.36,51.7572 138.554,48.7201 137.874,45.7783 C137.581,44.5126 137.885,43.158 138.18,41.893 C138.742,39.4896 139.357,37.0613 140.43,34.8382 C141.256,33.1254 142.896,31.9086 143.804,30.2373 C144.416,29.1099 146.045,25.9254 144.928,26.5565 Z" style="stroke:none;fill-rule:evenodd;fill:#334b4a;fill-opacity:1;"/>
        </g>
        <g id="Shape17">
            <desc shapeID="17" type="0" basicInfo-basicType="0" basicInfo-roundedRectRadius="12" basicInfo-polygonSides="6" basicInfo-starPoints="5" bounding="rect(-270.971,-144.877,541.942,289.753)" text="" font-familyName="Helvetica" font-pixelSize="20" font-bold="0" font-underline="0" font-alignment="1" strokeStyle="0" markerStart="0" markerEnd="0" shadowEnabled="0" shadowOffsetX="0" shadowOffsetY="2" shadowBlur="4" shadowOpacity="160" blurEnabled="0" blurRadius="4" transform="matrix(0.158546,0,0,0.158546,112.689,33.1804)" pers-center="0,0" pers-size="0,0" pers-start="0,0" pers-end="0,0" locked="0" mesh="" flag=""/>
            <path id="shapePath17" d="M155.62,13.6056 C155.873,12.4404 154.49,11.157 153.338,10.8511 C150.344,10.057 147.112,10.0618 144.052,10.5364 C140.585,11.0742 137.276,12.4442 134.058,13.8416 C129.882,15.6544 126.086,18.2602 121.939,20.1372 C118.309,21.7799 114.49,22.9677 110.766,24.383 C110.653,24.4258 110.548,24.5116 110.427,24.5116 C106.533,24.5116 102.636,24.5484 98.7451,24.3832 C93.5607,24.1631 88.3738,23.8841 83.2116,23.3561 C80.832,23.1128 78.5416,21.986 76.1509,22.0724 C74.8309,22.1201 73.2758,22.6335 72.5564,23.7414 C70.9793,26.1702 69.7495,29.0614 69.7322,31.9574 C69.7051,36.4975 69.7073,41.6739 72.4281,45.3085 C75.7855,49.7936 81.2618,52.5713 86.5495,54.4232 C91.7014,56.2274 97.4092,56.3661 102.853,55.9637 C108.557,55.542 114.265,54.1893 119.542,51.9841 C123.04,50.5221 126.177,48.0482 128.657,45.1801 C129.906,43.735 129.113,41.2326 130.197,39.66 C130.969,38.541 133.132,38.9225 133.792,37.7343 C134.603,36.2735 134.323,34.376 134.048,32.7276 C133.954,32.1599 133.297,31.3517 132.765,31.5723 C131.165,32.2353 130.109,33.7941 128.785,34.91 C124.931,38.1589 121.561,42.0847 117.231,44.6666 C114.313,46.4071 110.749,46.7117 107.475,47.6193 C102.874,48.8945 98.3843,51.1673 93.6101,51.2137 C89.3129,51.2557 85.0642,49.6665 81.1576,47.876 C78.7568,46.7757 76.529,44.9772 75.124,42.741 C73.3745,39.9567 72.4061,36.6377 72.043,33.3696 C71.7881,31.0757 72.15,28.5512 73.3267,26.5656 C73.8071,25.7549 75.2526,26.722 76.1509,26.4371 C77.0676,26.1465 77.6346,24.7881 78.5901,24.8967 C79.8755,25.0427 80.9682,26.0879 81.7996,27.0791 C82.1855,27.5394 81.3929,28.6032 81.9278,28.8764 C85.7016,30.8033 89.6799,32.5894 93.8668,33.2411 C98.8987,34.0243 104.109,33.8772 109.144,33.1127 C112.412,32.6165 115.356,30.8376 118.387,29.5183 C122.634,27.6692 126.78,25.5943 130.967,23.613 C135.552,21.4436 140.216,19.4296 144.704,17.0658 C145.84,16.4675 146.539,15.0664 147.785,14.755 C149.284,14.3801 150.877,15.3645 152.406,15.1401 C153.581,14.9678 155.368,14.7655 155.62,13.6056 Z" style="stroke:none;fill-rule:evenodd;fill:#334b4a;fill-opacity:1;"/>
        </g>
        <g id="Shape18">
            <desc shapeID="18" type="0" basicInfo-basicType="0" basicInfo-roundedRectRadius="12" basicInfo-polygonSides="6" basicInfo-starPoints="5" bounding="rect(-21.7446,-88.1959,43.4891,176.392)" text="" font-familyName="Helvetica" font-pixelSize="20" font-bold="0" font-underline="0" font-alignment="1" strokeStyle="0" markerStart="0" markerEnd="0" shadowEnabled="0" shadowOffsetX="0" shadowOffsetY="2" shadowBlur="4" shadowOpacity="160" blurEnabled="0" blurRadius="4" transform="matrix(0.158546,0,0,0.158546,196.202,72.5961)" pers-center="0,0" pers-size="0,0" pers-start="0,0" pers-end="0,0" locked="0" mesh="" flag=""/>
            <path id="shapePath18" d="M193.23,58.7461 C193.86,58.1894 194.86,59.5122 195.247,60.2581 C196.534,62.7435 197.382,65.4499 198.103,68.1544 C198.843,70.93 199.458,73.7704 199.615,76.6388 C199.768,79.4415 199.381,82.2544 199.027,85.039 C198.957,85.5861 198.892,86.4258 198.355,86.551 C197.684,86.7075 196.908,86.1865 196.507,85.627 C196.039,84.9757 196.035,84.0761 196.003,83.275 C195.894,80.5328 196.365,77.7727 196.087,75.0427 C195.802,72.2507 194.965,69.5421 194.323,66.8104 C193.957,65.2564 193.277,63.772 193.063,62.1902 C192.908,61.0512 192.37,59.5076 193.23,58.7461 Z" style="stroke:none;fill-rule:evenodd;fill:#334b4a;fill-opacity:1;"/>
        </g>
        <g id="Shape19">
            <desc shapeID="19" type="0" basicInfo-basicType="0" basicInfo-roundedRectRadius="12" basicInfo-polygonSides="6" basicInfo-starPoints="5" bounding="rect(-20.6831,-113.122,41.3662,226.244)" text="" font-familyName="Helvetica" font-pixelSize="20" font-bold="0" font-underline="0" font-alignment="1" strokeStyle="0" markerStart="0" markerEnd="0" shadowEnabled="0" shadowOffsetX="0" shadowOffsetY="2" shadowBlur="4" shadowOpacity="160" blurEnabled="0" blurRadius="4" transform="matrix(0.158546,0,0,0.158546,153.841,81.8766)" pers-center="0,0" pers-size="0,0" pers-start="0,0" pers-end="0,0" locked="0" mesh="" flag=""/>
            <path id="shapePath19" d="M155.652,64.0371 C156.181,63.5914 157.117,64.8128 157.12,65.5046 C157.144,71.008 156.323,76.485 155.729,81.9562 C155.242,86.4519 154.657,90.9413 153.876,95.3955 C153.625,96.8238 153.298,98.2742 152.64,99.5664 C152.499,99.8427 151.874,99.909 151.713,99.6436 C151.098,98.6263 150.7,97.432 150.632,96.2451 C150.44,92.9022 150.676,89.5423 150.941,86.2043 C151.191,83.0464 151.622,79.9002 152.177,76.7813 C152.704,73.8174 153.393,70.8805 154.185,67.9761 C154.553,66.6244 154.58,64.9397 155.652,64.0371 Z" style="stroke:none;fill-rule:evenodd;fill:#334b4a;fill-opacity:1;"/>
        </g>
        <g id="Shape20">
            <desc shapeID="20" type="0" basicInfo-basicType="0" basicInfo-roundedRectRadius="12" basicInfo-polygonSides="6" basicInfo-starPoints="5" bounding="rect(-280.775,-37.0117,561.551,74.0234)" text="USERFLOW" font-familyName="Arial Rounded MT Bold" font-pixelSize="100" font-bold="0" font-underline="0" font-alignment="1" strokeStyle="0" markerStart="0" markerEnd="0" shadowEnabled="0" shadowOffsetX="0" shadowOffsetY="2" shadowBlur="4" shadowOpacity="160" blurEnabled="0" blurRadius="4" transform="matrix(0.261482,0,0,0.261482,74.4265,89.3409)" pers-center="0,0" pers-size="0,0" pers-start="0,0" pers-end="0,0" locked="0" mesh="" flag=""/>
            <path id="shapePath20" d="M1.0088,90.9623 L1.0088,81.9611 C1.0088,81.1951 1.18116,80.6205 1.52589,80.2375 C1.87061,79.8545 2.32387,79.663 2.88564,79.663 C3.47295,79.663 3.93898,79.8545 4.28371,80.2375 C4.62843,80.6205 4.8008,81.1951 4.8008,81.9611 L4.8008,91.1666 C4.8008,92.2136 4.91783,93.0882 5.15191,93.7904 C5.38598,94.4926 5.80093,95.0374 6.39675,95.4246 C6.99258,95.8119 7.82674,96.0056 8.89922,96.0056 C10.3803,96.0056 11.4272,95.6119 12.0401,94.8246 C12.6529,94.0372 12.9593,92.8435 12.9593,91.2432 L12.9593,81.9611 C12.9593,81.1866 13.1296,80.6099 13.47,80.2311 C13.8105,79.8523 14.2659,79.663 14.8362,79.663 C15.4065,79.663 15.8682,79.8523 16.2215,80.2311 C16.5747,80.6099 16.7513,81.1866 16.7513,81.9611 L16.7513,90.9623 C16.7513,92.4264 16.6088,93.6478 16.3236,94.6267 C16.0385,95.6055 15.5001,96.4652 14.7085,97.2057 C14.0276,97.8356 13.236,98.2952 12.3337,98.5846 C11.4315,98.874 10.376,99.0187 9.16734,99.0187 C7.72885,99.0187 6.49038,98.8634 5.45195,98.5527 C4.41351,98.2421 3.56658,97.7611 2.91118,97.11 C2.25578,96.4588 1.77486,95.6247 1.46843,94.6075 C1.16201,93.5904 1.0088,92.3753 1.0088,90.9623 M35.0709,93.0818 C35.0709,94.2138 34.7794,95.231 34.1963,96.1333 C33.6133,97.0355 32.76,97.742 31.6364,98.2527 C30.5128,98.7634 29.1808,99.0187 27.6401,99.0187 C25.7931,99.0187 24.2695,98.6698 23.0693,97.9718 C22.2181,97.4696 21.5265,96.7993 20.9945,95.9609 C20.4626,95.1225 20.1966,94.3075 20.1966,93.5159 C20.1966,93.0562 20.3562,92.6626 20.6754,92.3349 C20.9945,92.0072 21.401,91.8433 21.8947,91.8433 C22.2947,91.8433 22.6331,91.971 22.9097,92.2263 C23.1863,92.4817 23.4225,92.8605 23.6183,93.3627 C23.8566,93.9585 24.1141,94.4564 24.3907,94.8565 C24.6674,95.2565 25.0568,95.5864 25.559,95.846 C26.0612,96.1056 26.7208,96.2354 27.538,96.2354 C28.6615,96.2354 29.5744,95.9737 30.2766,95.4502 C30.9789,94.9267 31.33,94.2734 31.33,93.4903 C31.33,92.869 31.1406,92.3647 30.7618,91.9774 C30.383,91.5901 29.8936,91.2943 29.2935,91.09 C28.6935,90.8857 27.8912,90.6687 26.8868,90.4389 C25.542,90.1239 24.4163,89.7558 23.5098,89.3345 C22.6033,88.9131 21.884,88.3386 21.352,87.6108 C20.8201,86.8831 20.5541,85.9787 20.5541,84.8977 C20.5541,83.8678 20.835,82.9528 21.3967,82.1526 C21.9585,81.3525 22.7714,80.7376 23.8354,80.3077 C24.8993,79.8779 26.1506,79.663 27.5891,79.663 C28.7381,79.663 29.7319,79.8055 30.5703,80.0907 C31.4087,80.3758 32.1045,80.7546 32.6578,81.227 C33.2111,81.6994 33.6154,82.1952 33.8707,82.7144 C34.1261,83.2337 34.2538,83.7401 34.2538,84.2338 C34.2538,84.6849 34.0942,85.0913 33.775,85.4531 C33.4558,85.8148 33.0579,85.9957 32.5812,85.9957 C32.1471,85.9957 31.8173,85.8872 31.5917,85.6701 C31.3662,85.4531 31.1214,85.0977 30.8576,84.604 C30.5171,83.8976 30.1085,83.3464 29.6319,82.9506 C29.1552,82.5548 28.3892,82.3569 27.3337,82.3569 C26.3548,82.3569 25.5654,82.5719 24.9653,83.0017 C24.3652,83.4315 24.0652,83.9486 24.0652,84.553 C24.0652,84.9275 24.1673,85.2509 24.3716,85.5233 C24.5759,85.7957 24.8568,86.0298 25.2143,86.2255 C25.5718,86.4213 25.9335,86.5745 26.2995,86.6852 C26.6655,86.7958 27.2699,86.9576 28.1125,87.1703 C29.168,87.4172 30.1234,87.6896 30.9789,87.9875 C31.8343,88.2854 32.5621,88.6471 33.1621,89.0727 C33.7622,89.4983 34.2304,90.0367 34.5666,90.6878 C34.9028,91.339 35.0709,92.137 35.0709,93.0818 M50.6189,82.9059 L42.0773,82.9059 L42.0773,87.5023 L49.9422,87.5023 C50.521,87.5023 50.953,87.6321 51.2381,87.8917 C51.5232,88.1513 51.6658,88.4939 51.6658,88.9195 C51.6658,89.3451 51.5254,89.692 51.2445,89.9601 C50.9636,90.2282 50.5295,90.3623 49.9422,90.3623 L42.0773,90.3623 L42.0773,95.6864 L50.9125,95.6864 C51.5084,95.6864 51.9573,95.8247 52.2595,96.1013 C52.5617,96.378 52.7128,96.7461 52.7128,97.2057 C52.7128,97.6483 52.5617,98.008 52.2595,98.2846 C51.9573,98.5612 51.5084,98.6996 50.9125,98.6996 L40.609,98.6996 C39.7834,98.6996 39.1897,98.5165 38.8279,98.1505 C38.4662,97.7845 38.2853,97.193 38.2853,96.3758 L38.2853,82.3059 C38.2853,81.7611 38.3662,81.3164 38.5279,80.9716 C38.6896,80.6269 38.9428,80.3758 39.2876,80.2183 C39.6323,80.0609 40.0728,79.9821 40.609,79.9821 L50.6189,79.9821 C51.2232,79.9821 51.6722,80.1162 51.9659,80.3843 C52.2595,80.6525 52.4063,81.0036 52.4063,81.4377 C52.4063,81.8803 52.2595,82.2356 51.9659,82.5038 C51.6722,82.7719 51.2232,82.9059 50.6189,82.9059 M60.8172,90.6942 L59.4893,90.6942 L59.4893,96.7078 C59.4893,97.4994 59.3148,98.0825 58.9659,98.457 C58.6169,98.8315 58.1615,99.0187 57.5997,99.0187 C56.9954,99.0187 56.5272,98.823 56.1953,98.4314 C55.8633,98.0399 55.6973,97.4653 55.6973,96.7078 L55.6973,82.3059 C55.6973,81.4887 55.8803,80.8972 56.2464,80.5312 C56.6124,80.1652 57.2039,79.9821 58.0211,79.9821 L64.1878,79.9821 C65.039,79.9821 65.7668,80.0183 66.3711,80.0907 C66.9755,80.163 67.5202,80.3099 68.0054,80.5312 C68.5927,80.778 69.1119,81.1312 69.563,81.5909 C70.0142,82.0505 70.3568,82.5846 70.5908,83.1932 C70.8249,83.8018 70.9419,84.4466 70.9419,85.1275 C70.9419,86.5235 70.5483,87.6385 69.7609,88.4726 C68.9736,89.3068 67.7798,89.8984 66.1796,90.2474 C66.852,90.6049 67.4947,91.1326 68.1075,91.8305 C68.7204,92.5285 69.2673,93.2712 69.7482,94.0585 C70.2291,94.8458 70.6036,95.5566 70.8717,96.1907 C71.1398,96.8248 71.2739,97.2611 71.2739,97.4994 C71.2739,97.7462 71.1952,97.991 71.0377,98.2335 C70.8802,98.4761 70.6653,98.6676 70.3929,98.8081 C70.1206,98.9485 69.8056,99.0187 69.4481,99.0187 C69.0225,99.0187 68.665,98.9187 68.3756,98.7187 C68.0862,98.5187 67.8373,98.2655 67.6287,97.959 C67.4202,97.6526 67.1372,97.2015 66.7797,96.6057 L65.2603,94.0777 C64.7156,93.1499 64.2283,92.4434 63.7984,91.9582 C63.3686,91.4731 62.9324,91.1411 62.4897,90.9623 C62.0471,90.7836 61.4896,90.6942 60.8172,90.6942 M62.9877,82.8293 L59.4893,82.8293 L59.4893,87.9747 L62.8855,87.9747 C63.7963,87.9747 64.5624,87.896 65.1837,87.7385 C65.8051,87.581 66.2796,87.3129 66.6073,86.9341 C66.935,86.5554 67.0989,86.034 67.0989,85.3701 C67.0989,84.8509 66.9669,84.3934 66.7031,83.9976 C66.4392,83.6018 66.0732,83.306 65.6051,83.1102 C65.1624,82.923 64.29,82.8293 62.9877,82.8293 M85.7136,82.9059 L78.2445,82.9059 L78.2445,87.6938 L84.4879,87.6938 C85.0667,87.6938 85.4987,87.8236 85.7839,88.0832 C86.069,88.3428 86.2116,88.6897 86.2116,89.1238 C86.2116,89.5579 86.0669,89.9026 85.7775,90.158 C85.4881,90.4133 85.0582,90.541 84.4879,90.541 L78.2445,90.541 L78.2445,96.7078 C78.2445,97.4909 78.0679,98.0718 77.7147,98.4506 C77.3615,98.8294 76.9082,99.0187 76.3549,99.0187 C75.7932,99.0187 75.3356,98.8272 74.9824,98.4442 C74.6292,98.0612 74.4525,97.4824 74.4525,96.7078 L74.4525,82.3059 C74.4525,81.7611 74.5334,81.3164 74.6951,80.9716 C74.8569,80.6269 75.1101,80.3758 75.4548,80.2183 C75.7995,80.0609 76.24,79.9821 76.7763,79.9821 L85.7136,79.9821 C86.318,79.9821 86.767,80.1162 87.0606,80.3843 C87.3543,80.6525 87.5011,81.0036 87.5011,81.4377 C87.5011,81.8803 87.3543,82.2356 87.0606,82.5038 C86.767,82.7719 86.318,82.9059 85.7136,82.9059 M94.0356,81.9611 L94.0356,95.5842 L101.722,95.5842 C102.335,95.5842 102.805,95.7332 103.133,96.0311 C103.46,96.329 103.624,96.7035 103.624,97.1547 C103.624,97.6143 103.462,97.9867 103.139,98.2718 C102.816,98.557 102.343,98.6996 101.722,98.6996 L92.5673,98.6996 C91.7417,98.6996 91.148,98.5165 90.7862,98.1505 C90.4245,97.7845 90.2436,97.193 90.2436,96.3758 L90.2436,81.9611 C90.2436,81.1951 90.416,80.6205 90.7607,80.2375 C91.1054,79.8545 91.5587,79.663 92.1205,79.663 C92.6907,79.663 93.1525,79.8523 93.5057,80.2311 C93.859,80.6099 94.0356,81.1866 94.0356,81.9611 M113.043,79.663 C114.984,79.663 116.65,80.0566 118.042,80.844 C119.433,81.6313 120.487,82.7506 121.202,84.2019 C121.917,85.6531 122.274,87.3576 122.274,89.3153 C122.274,90.7623 122.078,92.0774 121.687,93.2605 C121.295,94.4437 120.708,95.4693 119.925,96.3375 C119.142,97.2057 118.18,97.8697 117.039,98.3293 C115.899,98.7889 114.592,99.0187 113.12,99.0187 C111.656,99.0187 110.345,98.7825 109.187,98.3101 C108.03,97.8377 107.064,97.1717 106.289,96.312 C105.514,95.4523 104.929,94.4181 104.533,93.2095 C104.138,92.0008 103.94,90.6942 103.94,89.2898 C103.94,87.8513 104.146,86.532 104.559,85.3318 C104.972,84.1316 105.57,83.1102 106.353,82.2676 C107.136,81.4249 108.089,80.7801 109.213,80.3333 C110.336,79.8864 111.613,79.663 113.043,79.663 M118.431,89.2898 C118.431,87.9194 118.21,86.732 117.767,85.7276 C117.325,84.7232 116.693,83.9635 115.871,83.4486 C115.05,82.9336 114.107,82.6761 113.043,82.6761 C112.286,82.6761 111.585,82.8187 110.943,83.1038 C110.3,83.389 109.747,83.8039 109.283,84.3487 C108.819,84.8934 108.453,85.5893 108.185,86.4362 C107.917,87.2831 107.783,88.2343 107.783,89.2898 C107.783,90.3538 107.917,91.3156 108.185,92.1753 C108.453,93.035 108.832,93.7478 109.321,94.3139 C109.811,94.8799 110.373,95.3034 111.007,95.5842 C111.641,95.8651 112.337,96.0056 113.094,96.0056 C114.065,96.0056 114.956,95.763 115.769,95.2778 C116.582,94.7926 117.229,94.0436 117.71,93.0307 C118.191,92.0178 118.431,90.7708 118.431,89.2898 M139.086,95.7502 L136.06,84.5274 L132.995,95.7502 C132.757,96.6014 132.568,97.2121 132.427,97.5824 C132.287,97.9526 132.042,98.2846 131.693,98.5783 C131.344,98.8719 130.88,99.0187 130.301,99.0187 C129.833,99.0187 129.448,98.9315 129.146,98.757 C128.844,98.5825 128.599,98.3357 128.412,98.0165 C128.225,97.6973 128.071,97.3185 127.952,96.8802 C127.833,96.4418 127.727,96.0354 127.633,95.6609 L124.518,83.0592 C124.33,82.3271 124.237,81.7696 124.237,81.3866 C124.237,80.9014 124.407,80.4929 124.747,80.1609 C125.088,79.8289 125.509,79.663 126.011,79.663 C126.701,79.663 127.165,79.8843 127.403,80.3269 C127.641,80.7695 127.85,81.4121 128.029,82.2548 L130.48,93.1839 L133.225,82.957 C133.43,82.1739 133.613,81.5781 133.774,81.1695 C133.936,80.761 134.2,80.4077 134.566,80.1098 C134.932,79.8119 135.43,79.663 136.06,79.663 C136.698,79.663 137.194,79.8183 137.547,80.129 C137.9,80.4397 138.145,80.778 138.281,81.144 C138.417,81.51 138.6,82.1143 138.83,82.957 L141.601,93.1839 L144.052,82.2548 C144.171,81.6845 144.284,81.2376 144.391,80.9142 C144.497,80.5907 144.68,80.3013 144.94,80.046 C145.199,79.7906 145.576,79.663 146.069,79.663 C146.563,79.663 146.982,79.8268 147.327,80.1545 C147.672,80.4822 147.844,80.8929 147.844,81.3866 C147.844,81.7356 147.751,82.2931 147.563,83.0592 L144.448,95.6609 C144.235,96.512 144.059,97.1355 143.918,97.5313 C143.778,97.9271 143.539,98.274 143.203,98.5719 C142.867,98.8698 142.392,99.0187 141.78,99.0187 C141.201,99.0187 140.737,98.874 140.388,98.5846 C140.039,98.2952 139.796,97.9697 139.66,97.6079 C139.524,97.2462 139.332,96.6269 139.086,95.7502 Z" style="stroke:none;fill-rule:nonzero;fill:#334b4a;fill-opacity:1;"/>
        </g>
        <g id="Shape21">
            <desc shapeID="21" type="0" basicInfo-basicType="0" basicInfo-roundedRectRadius="12" basicInfo-polygonSides="6" basicInfo-starPoints="5" bounding="rect(-17.3311,-7.34375,34.6621,14.6875)" text="risa" font-familyName="Arial Rounded MT Bold" font-pixelSize="20" font-bold="0" font-underline="0" font-alignment="1" strokeStyle="0" markerStart="0" markerEnd="0" shadowEnabled="0" shadowOffsetX="0" shadowOffsetY="2" shadowBlur="4" shadowOpacity="160" blurEnabled="0" blurRadius="4" transform="matrix(0.490198,0,0,0.490199,189.735,92.9407)" pers-center="0,0" pers-size="0,0" pers-start="0,0" pers-end="0,0" locked="0" mesh="" flag=""/>
            <path id="shapePath21" d="M182.546,94.6545 L182.546,95.746 C182.546,96.0109 182.484,96.2095 182.359,96.342 C182.235,96.4744 182.077,96.5406 181.885,96.5406 C181.697,96.5406 181.542,96.4736 181.421,96.3396 C181.3,96.2056 181.239,96.0077 181.239,95.746 L181.239,92.1078 C181.239,91.5206 181.451,91.227 181.876,91.227 C182.093,91.227 182.249,91.2956 182.345,91.4328 C182.44,91.57 182.493,91.7727 182.503,92.0408 C182.659,91.7727 182.819,91.57 182.984,91.4328 C183.148,91.2956 183.368,91.227 183.642,91.227 C183.917,91.227 184.183,91.2956 184.441,91.4328 C184.7,91.57 184.829,91.7519 184.829,91.9785 C184.829,92.1381 184.774,92.2698 184.664,92.3735 C184.554,92.4772 184.435,92.5291 184.307,92.5291 C184.26,92.5291 184.144,92.4995 183.96,92.4405 C183.777,92.3814 183.615,92.3519 183.475,92.3519 C183.283,92.3519 183.127,92.4022 183.005,92.5027 C182.884,92.6032 182.79,92.7524 182.723,92.9503 C182.656,93.1482 182.61,93.3836 182.584,93.6564 C182.559,93.9293 182.546,94.262 182.546,94.6545 M186.845,91.969 L186.845,95.746 C186.845,96.0077 186.782,96.2056 186.658,96.3396 C186.533,96.4736 186.375,96.5406 186.184,96.5406 C185.993,96.5406 185.837,96.472 185.717,96.3348 C185.598,96.1976 185.538,96.0013 185.538,95.746 L185.538,92.0073 C185.538,91.7488 185.598,91.5541 185.717,91.4232 C185.837,91.2924 185.993,91.227 186.184,91.227 C186.375,91.227 186.533,91.2924 186.658,91.4232 C186.782,91.5541 186.845,91.736 186.845,91.969 M186.198,90.619 C186.016,90.619 185.861,90.5631 185.732,90.4515 C185.602,90.3398 185.538,90.1818 185.538,89.9775 C185.538,89.7924 185.604,89.64 185.736,89.5204 C185.869,89.4007 186.023,89.3409 186.198,89.3409 C186.368,89.3409 186.518,89.3951 186.648,89.5036 C186.779,89.6121 186.845,89.7701 186.845,89.9775 C186.845,90.1786 186.781,90.3358 186.653,90.4491 C186.525,90.5624 186.374,90.619 186.198,90.619 M192.396,94.8316 C192.396,95.1923 192.308,95.501 192.132,95.7579 C191.957,96.0149 191.698,96.2095 191.355,96.342 C191.011,96.4744 190.594,96.5406 190.103,96.5406 C189.634,96.5406 189.231,96.4688 188.896,96.3252 C188.561,96.1816 188.314,96.0021 188.154,95.7867 C187.995,95.5713 187.915,95.355 187.915,95.138 C187.915,94.9944 187.966,94.8715 188.068,94.7694 C188.17,94.6673 188.3,94.6162 188.456,94.6162 C188.593,94.6162 188.699,94.6497 188.772,94.7168 C188.845,94.7838 188.916,94.8779 188.983,94.9992 C189.117,95.2322 189.277,95.4061 189.464,95.521 C189.65,95.6359 189.905,95.6933 190.227,95.6933 C190.489,95.6933 190.703,95.6351 190.871,95.5186 C191.039,95.4021 191.122,95.2689 191.122,95.1189 C191.122,94.8891 191.035,94.7215 190.861,94.6162 C190.688,94.5109 190.401,94.4104 190.002,94.3146 C189.552,94.2029 189.186,94.0857 188.904,93.9628 C188.621,93.8399 188.395,93.678 188.226,93.4769 C188.057,93.2758 187.972,93.0285 187.972,92.7349 C187.972,92.4732 188.051,92.2259 188.207,91.9929 C188.363,91.7599 188.594,91.574 188.899,91.4352 C189.204,91.2964 189.571,91.227 190.002,91.227 C190.34,91.227 190.644,91.2621 190.914,91.3323 C191.184,91.4025 191.409,91.4966 191.589,91.6147 C191.769,91.7328 191.907,91.8636 192.001,92.0073 C192.095,92.1509 192.142,92.2913 192.142,92.4285 C192.142,92.5785 192.092,92.7014 191.991,92.7971 C191.891,92.8929 191.748,92.9407 191.563,92.9407 C191.429,92.9407 191.315,92.9024 191.221,92.8259 C191.126,92.7493 191.019,92.6344 190.897,92.4812 C190.798,92.3535 190.682,92.2514 190.548,92.1748 C190.414,92.0982 190.232,92.0599 190.002,92.0599 C189.766,92.0599 189.57,92.1102 189.413,92.2107 C189.257,92.3112 189.179,92.4365 189.179,92.5865 C189.179,92.7237 189.236,92.8362 189.351,92.924 C189.466,93.0117 189.621,93.0844 189.815,93.1418 C190.01,93.1992 190.278,93.2695 190.62,93.3524 C191.025,93.4514 191.356,93.5695 191.613,93.7067 C191.87,93.8439 192.065,94.0059 192.197,94.1926 C192.33,94.3793 192.396,94.5923 192.396,94.8316 M196.799,95.8034 C196.483,96.0492 196.177,96.2335 195.882,96.3563 C195.587,96.4792 195.256,96.5406 194.889,96.5406 C194.554,96.5406 194.259,96.4744 194.006,96.342 C193.752,96.2095 193.556,96.03 193.419,95.8034 C193.282,95.5768 193.213,95.3311 193.213,95.0662 C193.213,94.7088 193.327,94.404 193.553,94.1519 C193.78,93.8998 194.091,93.7306 194.487,93.6444 C194.57,93.6253 194.776,93.5822 195.104,93.5152 C195.433,93.4482 195.715,93.3867 195.949,93.3309 C196.184,93.275 196.438,93.2072 196.713,93.1274 C196.697,92.7828 196.627,92.5299 196.505,92.3687 C196.382,92.2075 196.127,92.1269 195.741,92.1269 C195.409,92.1269 195.159,92.1732 194.992,92.2658 C194.824,92.3583 194.681,92.4971 194.561,92.6822 C194.441,92.8673 194.357,92.9894 194.307,93.0485 C194.258,93.1075 194.152,93.137 193.989,93.137 C193.842,93.137 193.715,93.0899 193.608,92.9958 C193.501,92.9016 193.448,92.7812 193.448,92.6344 C193.448,92.4046 193.529,92.1812 193.692,91.9642 C193.855,91.7472 194.109,91.5684 194.453,91.428 C194.798,91.2876 195.227,91.2174 195.741,91.2174 C196.315,91.2174 196.767,91.2852 197.096,91.4208 C197.424,91.5565 197.657,91.7711 197.792,92.0647 C197.928,92.3583 197.996,92.7477 197.996,93.2328 C197.996,93.5391 197.995,93.7992 197.993,94.0131 C197.992,94.2269 197.989,94.4646 197.986,94.7263 C197.986,94.9721 198.027,95.2282 198.108,95.4947 C198.19,95.7611 198.23,95.9327 198.23,96.0093 C198.23,96.1433 198.167,96.2654 198.041,96.3755 C197.915,96.4856 197.772,96.5406 197.613,96.5406 C197.479,96.5406 197.346,96.4776 197.215,96.3516 C197.085,96.2255 196.946,96.0428 196.799,95.8034 M196.713,93.9125 C196.521,93.9827 196.243,94.0569 195.877,94.1351 C195.512,94.2133 195.259,94.2708 195.119,94.3075 C194.978,94.3442 194.844,94.416 194.717,94.5229 C194.589,94.6298 194.525,94.779 194.525,94.9705 C194.525,95.1683 194.6,95.3367 194.75,95.4755 C194.9,95.6143 195.096,95.6837 195.339,95.6837 C195.597,95.6837 195.836,95.6271 196.055,95.5138 C196.273,95.4005 196.434,95.2545 196.536,95.0758 C196.654,94.8779 196.713,94.5524 196.713,94.0992 L196.713,93.9125 Z" style="stroke:none;fill-rule:nonzero;fill:#334b4a;fill-opacity:1;"/>
        </g>
    </g>
</svg>
